<svg xmlns="http://www.w3.org/2000/svg" width="1024" height="1024" viewBox="0 0 1024 1024">
<g>
<path d="M 691.51 515.00 L 691.50 631.50 L 605.00 631.55 C557.42,631.57 524.80,631.33 532.50,631.00 C540.20,630.68 545.38,630.30 544.00,630.17 L 541.50 629.93 L 543.78 628.66 C545.04,627.97 545.75,627.08 545.36,626.70 C544.98,626.31 545.88,626.00 547.37,626.00 C549.81,626.00 549.96,625.80 548.93,623.88 C548.01,622.15 548.14,621.41 549.65,619.91 C551.91,617.65 564.60,615.08 575.00,614.79 C579.12,614.67 574.40,614.31 564.50,613.99 L 546.50 613.41 L 594.50 613.50 L 594.82 616.25 L 595.13 619.00 L 612.00 619.00 L 612.00 610.00 L 648.00 610.00 L 648.00 598.26 L 643.07 597.60 C640.36,597.24 633.90,597.25 628.71,597.61 L 619.29 598.28 L 618.76 595.50 C618.46,593.98 618.46,590.99 618.74,588.87 L 619.26 585.00 L 648.00 585.00 L 648.00 572.00 L 618.71 572.00 L 614.10 575.69 C610.81,578.33 610.19,578.61 611.92,576.69 L 614.35 574.00 L 611.83 574.00 C609.09,574.00 605.74,571.53 604.71,568.75 C604.19,567.36 604.61,567.00 606.78,566.98 C608.28,566.98 610.17,566.54 611.00,566.01 C612.18,565.27 611.80,564.92 609.25,564.40 C607.46,564.04 606.00,563.38 606.00,562.92 C606.00,561.84 619.27,549.12 624.87,544.84 C631.38,539.86 636.93,533.91 638.52,530.21 C639.43,528.08 641.15,526.42 643.41,525.47 C645.32,524.67 647.30,523.29 647.80,522.40 C648.42,521.29 649.39,520.99 650.83,521.45 C652.00,521.82 652.86,522.43 652.74,522.81 C652.26,524.32 655.30,529.93 656.27,529.33 C656.93,528.92 657.00,529.20 656.47,530.10 C654.82,532.88 643.90,547.00 643.40,547.00 C643.13,547.00 644.10,545.42 645.57,543.50 C648.75,539.33 648.12,538.87 644.54,542.74 C643.14,544.25 642.00,545.09 642.00,544.62 C642.00,544.14 641.33,544.32 640.50,545.00 C639.67,545.68 639.00,547.02 639.00,547.97 C639.00,549.73 635.71,553.38 634.88,552.55 C634.63,552.29 634.35,553.04 634.26,554.20 C634.13,555.98 634.85,555.61 638.80,551.91 L 643.50 547.50 L 638.75 552.53 C636.14,555.30 634.00,558.03 634.00,558.59 C634.00,559.23 638.90,559.58 647.25,559.55 L 660.50 559.50 L 661.03 619.00 L 678.90 619.00 L 679.26 566.25 C679.58,518.60 679.78,513.07 681.38,509.00 C683.57,503.48 683.61,503.43 685.41,504.93 C686.22,505.59 687.18,508.59 687.55,511.58 C687.93,514.58 688.63,517.27 689.12,517.57 C689.60,517.87 690.11,519.78 690.24,521.81 C690.24,521.88 690.25,521.92 690.25,521.92 C690.39,521.92 690.72,495.68 691.00,462.00 C691.15,444.41 691.26,435.31 691.34,435.31 C691.47,435.31 691.52,460.90 691.51,515.00 ZM 667.33 500.42 C667.63,501.20 667.30,502.06 666.60,502.32 C664.82,503.01 662.60,501.46 663.43,500.11 C664.40,498.55 666.68,498.73 667.33,500.42 ZM 665.98 452.25 C665.98,452.94 665.53,454.17 665.00,455.00 C664.24,456.17 664.03,455.89 664.02,453.75 C664.01,452.24 664.45,451.00 665.00,451.00 C665.55,451.00 665.99,451.56 665.98,452.25 Z" fill="rgb(39,192,180)"/>
<path d="M 542.28 759.65 C535.29,762.58 528.67,760.91 522.00,754.54 C520.08,752.71 516.92,750.88 515.00,750.48 C501.37,747.65 493.04,736.57 494.28,722.90 C495.15,713.24 501.10,705.51 510.32,702.06 C514.96,700.32 527.94,700.79 532.50,702.87 C541.45,706.94 547.98,718.86 546.63,728.66 C545.47,737.13 539.74,745.46 532.95,748.52 L 528.78 750.40 L 531.00 752.20 C533.95,754.59 539.09,754.50 541.77,752.00 C544.56,749.40 545.38,749.48 546.98,752.47 C548.60,755.48 547.22,757.59 542.28,759.65 ZM 667.00 734.50 L 667.00 750.00 L 658.00 750.00 L 658.00 701.00 L 666.75 701.00 L 675.62 716.56 C680.51,725.11 684.91,732.13 685.41,732.15 C685.91,732.17 690.35,725.17 695.26,716.59 L 704.20 701.00 L 711.90 701.00 L 712.20 724.25 C712.36,737.04 712.34,748.06 712.14,748.75 C711.94,749.47 710.15,750.00 707.89,750.00 L 704.00 750.00 L 704.00 734.50 C704.00,725.79 703.60,719.00 703.08,719.00 C702.58,719.00 698.89,724.85 694.89,732.00 C690.08,740.58 687.71,744.87 685.35,744.87 C683.02,744.87 680.69,740.72 676.03,732.42 L 675.79 732.01 C671.78,724.86 668.16,719.01 667.75,719.01 C667.34,719.00 667.00,725.97 667.00,734.50 ZM 561.65 748.00 C560.69,749.98 559.56,750.56 556.22,750.81 C553.90,750.98 552.00,750.69 552.00,750.18 C552.00,748.72 554.40,743.07 564.31,721.26 L 573.50 701.02 L 578.11 701.01 L 582.72 701.00 L 592.81 723.47 C598.36,735.83 603.03,746.74 603.20,747.72 C603.44,749.16 602.68,749.56 599.26,749.81 L 595.03 750.11 L 590.11 739.00 L 565.24 739.00 L 564.06 742.25 C563.40,744.04 562.32,746.62 561.65,748.00 ZM 337.00 743.00 L 337.00 750.00 L 298.96 750.00 L 299.23 725.75 L 299.50 701.50 L 317.81 701.23 L 336.12 700.95 L 335.81 704.73 L 335.50 708.50 L 322.25 708.78 L 309.00 709.06 L 309.00 722.00 L 320.48 722.00 C331.82,722.00 331.97,722.03 332.58,724.44 C332.91,725.79 332.89,727.36 332.54,727.94 C332.14,728.59 327.40,729.00 320.44,729.00 L 309.00 729.00 L 309.00 743.00 ZM 411.00 743.00 L 411.00 750.00 L 373.00 750.00 L 373.00 701.00 L 409.00 701.00 L 409.00 709.00 L 382.00 709.00 L 382.00 722.00 L 406.13 722.00 L 405.50 728.50 L 382.00 729.06 L 382.00 743.00 ZM 461.00 743.00 L 461.00 750.00 L 418.00 750.00 L 418.00 746.94 C418.00,743.83 418.50,743.16 439.21,718.38 C442.95,713.91 446.00,709.97 446.00,709.63 C446.00,709.28 439.92,709.00 432.50,709.00 L 419.00 709.00 L 419.00 701.00 L 460.00 701.00 L 460.00 703.27 C460.00,706.25 457.57,709.68 443.19,726.97 C436.57,734.93 431.37,741.79 431.64,742.22 C431.90,742.65 438.62,743.00 446.56,743.00 ZM 639.68 748.57 C634.66,750.91 626.19,751.66 620.50,750.28 C616.76,749.37 609.00,745.76 609.00,744.92 C609.00,743.48 611.29,739.00 612.03,739.00 C612.43,739.00 614.72,739.86 617.12,740.92 C626.74,745.13 636.10,743.96 638.12,738.30 C639.44,734.58 636.37,732.14 627.56,729.89 C623.20,728.77 618.40,727.22 616.90,726.45 C606.80,721.23 607.86,706.88 618.67,702.36 C624.51,699.93 640.16,700.87 644.96,703.94 C646.24,704.76 646.20,705.35 644.72,708.47 L 643.01 712.05 L 639.75 710.35 C635.00,707.85 623.89,707.89 621.11,710.40 C618.48,712.78 618.40,716.15 620.94,718.44 C622.00,719.41 626.16,721.05 630.19,722.10 C640.34,724.74 642.67,725.82 645.52,729.21 C647.25,731.26 648.00,733.36 648.00,736.13 C648.00,742.23 645.61,745.81 639.68,748.57 ZM 514.00 741.88 C520.74,744.56 530.59,741.34 534.74,735.10 C539.41,728.08 536.73,715.25 529.71,710.96 C525.58,708.44 516.82,708.34 512.02,710.75 C507.19,713.17 504.04,719.10 504.02,725.80 C503.99,733.41 507.69,739.36 514.00,741.88 ZM 357.77 725.25 L 357.50 749.50 L 349.00 750.11 L 349.00 701.00 L 358.04 701.00 ZM 569.27 730.75 C568.91,731.69 571.04,732.00 578.00,732.00 C586.35,732.00 587.15,731.84 586.57,730.25 C584.43,724.44 578.41,711.04 577.92,711.02 C577.47,711.00 573.00,721.19 569.27,730.75 ZM 486.13 727.00 L 485.50 733.50 L 467.00 734.08 L 467.00 727.00 Z" fill="rgb(39,40,40)"/>
<path d="M 529.00 607.10 C529.00,607.71 519.18,608.85 518.64,608.31 C518.53,608.20 515.08,607.66 510.97,607.11 C489.71,604.27 478.80,600.99 461.78,592.32 C448.66,585.64 431.67,572.86 426.03,565.44 C424.77,563.77 424.91,563.80 427.03,565.62 C428.39,566.78 432.72,569.83 436.65,572.39 C440.58,574.95 444.34,577.71 445.02,578.52 C446.94,580.83 449.98,580.37 450.12,577.75 C450.18,576.51 450.19,575.19 450.14,574.81 C449.97,573.64 460.30,569.07 464.50,568.46 C470.52,567.59 472.10,566.97 471.35,565.76 C470.93,565.08 471.21,564.90 472.09,565.29 C492.77,574.45 505.48,577.24 527.16,577.39 C541.33,577.49 542.50,577.62 539.45,578.84 C537.59,579.58 535.79,581.08 535.44,582.18 C535.10,583.27 533.46,584.64 531.81,585.22 C528.87,586.24 528.82,586.38 529.41,591.38 C529.80,594.72 529.52,597.89 528.58,600.50 C527.71,602.95 527.51,604.87 528.08,605.45 C528.58,605.97 529.00,606.72 529.00,607.10 ZM 619.05 534.85 C615.45,538.34 611.15,542.14 609.50,543.31 C607.85,544.47 611.79,540.29 618.25,534.03 C624.71,527.77 630.00,522.23 630.00,521.72 C630.00,521.21 631.29,519.15 632.87,517.14 C635.33,514.03 637.71,507.90 637.24,505.89 C637.16,505.56 638.15,504.72 639.44,504.03 C641.98,502.67 644.00,499.08 644.00,495.90 C644.00,493.95 643.91,493.94 641.09,495.61 C638.38,497.21 638.07,497.21 636.52,495.66 C635.61,494.75 635.15,494.00 635.50,494.00 C635.85,494.00 635.44,493.29 634.57,492.43 C633.71,491.56 633.00,490.08 633.00,489.13 C633.00,488.18 632.48,486.88 631.84,486.24 C631.20,485.60 630.75,483.03 630.84,480.54 C631.04,475.42 629.38,471.92 627.17,472.76 C625.99,473.22 625.85,472.75 626.44,470.41 C628.88,460.87 630.08,453.27 630.65,443.78 C631.01,437.89 631.65,433.28 632.08,433.55 C632.50,433.81 633.06,433.23 633.31,432.26 C633.67,430.89 633.79,430.98 633.88,432.69 C633.95,433.90 634.45,435.16 635.00,435.50 C635.55,435.84 636.00,436.78 636.00,437.59 C636.00,438.40 636.71,440.74 637.57,442.78 L 639.15 446.50 L 643.91 441.36 C646.52,438.54 649.39,434.71 650.27,432.86 C651.15,431.01 652.80,428.51 653.93,427.29 C655.07,426.08 656.00,424.61 656.00,424.04 C656.00,422.56 657.75,422.75 658.70,424.33 C659.14,425.06 660.85,425.63 662.50,425.58 L 665.50 425.50 L 665.50 439.93 C665.50,444.37 665.38,448.25 665.19,451.02 C665.13,451.01 665.06,451.00 665.00,451.00 C664.45,451.00 664.01,452.24 664.02,453.75 C664.02,454.97 664.10,455.59 664.30,455.67 C663.72,456.64 662.84,459.52 662.24,462.50 C659.88,474.13 650.10,496.07 641.88,508.18 C636.56,516.01 627.21,526.93 619.05,534.85 Z" fill="rgb(51,120,77)"/>
<path d="M 691.51 515.00 C691.52,460.90 691.47,435.31 691.34,435.31 C691.26,435.31 691.15,444.41 691.00,462.00 C690.72,495.68 690.39,521.92 690.25,521.92 C690.25,521.92 690.24,521.88 690.24,521.81 C690.11,519.78 689.60,517.87 689.12,517.57 C688.63,517.27 687.93,514.58 687.55,511.58 C687.18,508.59 686.22,505.59 685.41,504.93 C683.61,503.43 683.57,503.48 681.38,509.00 C679.78,513.07 679.58,518.60 679.26,566.25 L 678.99 606.15 L 678.94 552.75 C678.88,487.00 678.86,486.53 676.98,490.50 C675.94,492.70 672.42,500.20 669.15,507.17 C665.89,514.14 661.50,522.46 659.41,525.67 C658.62,526.87 657.72,528.20 656.73,529.62 C656.95,529.12 656.79,529.01 656.27,529.33 C655.30,529.93 652.26,524.32 652.74,522.81 C652.86,522.43 652.00,521.82 650.83,521.45 C649.39,520.99 648.42,521.29 647.80,522.40 C647.30,523.29 645.32,524.67 643.41,525.47 C641.15,526.42 639.43,528.08 638.52,530.21 C636.93,533.91 631.38,539.86 624.87,544.84 C619.27,549.12 606.00,561.84 606.00,562.92 C606.00,563.38 607.46,564.04 609.25,564.40 C611.80,564.92 612.18,565.27 611.00,566.01 C610.17,566.54 608.28,566.98 606.78,566.98 C604.61,567.00 604.19,567.36 604.71,568.75 C605.74,571.53 609.09,574.00 611.83,574.00 L 614.35 574.00 L 611.92 576.69 C610.19,578.61 610.81,578.33 614.10,575.69 L 618.71 572.00 L 614.60 575.31 C596.27,590.09 568.93,602.58 546.50,606.43 C541.55,607.27 532.21,608.02 525.75,608.07 C525.29,608.08 524.83,608.08 524.38,608.09 C526.77,607.80 529.00,607.39 529.00,607.10 C529.00,606.72 528.58,605.97 528.08,605.45 C527.51,604.87 527.71,602.95 528.58,600.50 C529.52,597.89 529.80,594.72 529.41,591.38 C528.82,586.38 528.87,586.24 531.81,585.22 C533.46,584.64 535.10,583.27 535.44,582.18 C535.79,581.08 537.59,579.58 539.45,578.84 C541.99,577.83 541.60,577.56 533.21,577.45 C546.07,576.57 558.87,573.43 571.95,568.03 C585.06,562.61 600.69,552.93 599.49,550.98 C599.16,550.45 599.59,550.29 600.44,550.62 C601.41,550.99 602.27,550.49 602.74,549.29 C603.16,548.24 607.10,544.20 611.50,540.32 C612.97,539.02 614.48,537.65 615.97,536.25 C610.90,541.24 608.05,544.32 609.50,543.31 C611.15,542.14 615.45,538.34 619.05,534.85 C627.21,526.93 636.56,516.01 641.88,508.18 C650.10,496.07 659.88,474.13 662.24,462.50 C662.84,459.52 663.72,456.64 664.30,455.67 C664.45,455.74 664.68,455.50 665.00,455.00 C665.53,454.17 665.98,452.94 665.98,452.25 C665.99,451.64 665.65,451.13 665.19,451.02 C665.27,449.78 665.35,448.31 665.40,446.67 C665.51,449.17 665.73,450.08 666.06,449.24 C666.97,446.92 669.33,433.67 670.55,424.05 C671.09,419.78 671.92,417.93 674.37,415.53 C676.09,413.84 678.14,411.23 678.92,409.73 C680.50,406.69 680.80,406.59 684.43,407.98 C685.93,408.54 687.00,409.73 687.00,410.82 C687.00,411.85 687.88,413.49 688.96,414.46 C690.89,416.21 690.92,416.10 691.26,407.37 C691.26,407.14 691.27,407.03 691.28,407.03 C691.45,407.03 691.57,453.91 691.55,515.00 L 691.50 631.50 L 570.50 631.73 C460.28,631.94 449.21,631.81 446.19,630.33 C444.26,629.37 443.34,628.41 443.97,628.02 C444.58,627.64 444.78,626.59 444.43,625.67 C444.07,624.73 444.27,624.00 444.89,624.00 C445.50,624.00 446.00,623.10 446.00,622.00 C446.00,620.21 446.70,619.99 452.75,619.90 C456.46,619.85 460.57,619.50 461.87,619.14 C463.95,618.55 463.52,618.18 458.37,616.08 C448.64,612.11 439.61,607.35 437.60,605.11 C436.55,603.95 434.94,603.00 434.02,603.00 C433.10,603.00 431.30,601.89 430.03,600.53 C428.75,599.17 427.38,598.27 426.97,598.52 C426.56,598.77 425.71,598.36 425.08,597.59 C424.21,596.55 424.25,595.89 425.24,594.86 C425.96,594.11 426.53,592.60 426.51,591.50 C426.45,588.89 429.85,585.00 432.18,585.00 C433.19,585.00 434.79,584.10 435.73,583.00 C437.72,580.68 439.69,580.46 441.92,582.31 C443.89,583.93 449.87,586.52 448.50,585.15 C447.95,584.61 444.94,582.18 441.81,579.76 C441.04,579.17 440.27,578.56 439.50,577.93 C446.45,583.30 454.68,588.70 461.78,592.32 C478.80,600.99 489.71,604.27 510.97,607.11 C515.00,607.65 518.40,608.18 518.63,608.30 C515.82,608.47 514.00,608.71 514.00,608.97 C514.00,610.93 531.55,612.38 562.00,612.92 L 594.50 613.50 L 546.50 613.41 L 564.50 613.99 C574.40,614.31 579.12,614.67 575.00,614.79 C564.60,615.08 551.91,617.65 549.65,619.91 C548.14,621.41 548.01,622.15 548.93,623.88 C549.96,625.80 549.81,626.00 547.37,626.00 C545.88,626.00 544.98,626.31 545.36,626.70 C545.75,627.08 545.04,627.97 543.78,628.66 L 541.50 629.93 L 544.00 630.17 C545.38,630.30 540.20,630.68 532.50,631.00 C524.80,631.33 557.42,631.57 605.00,631.55 L 691.50 631.50 ZM 645.35 544.84 C644.26,546.21 643.22,547.50 642.25,548.67 L 638.80 551.91 C634.85,555.61 634.13,555.98 634.26,554.20 C634.35,553.04 634.63,552.29 634.88,552.55 C635.71,553.38 639.00,549.73 639.00,547.97 C639.00,547.02 639.67,545.68 640.50,545.00 C641.33,544.32 642.00,544.14 642.00,544.62 C642.00,545.09 643.14,544.25 644.54,542.74 C648.12,538.87 648.75,539.33 645.57,543.50 C644.10,545.42 643.13,547.00 643.40,547.00 C643.53,547.00 644.27,546.16 645.35,544.84 ZM 667.33 500.42 C666.68,498.73 664.40,498.55 663.43,500.11 C662.60,501.46 664.82,503.01 666.60,502.32 C667.30,502.06 667.63,501.20 667.33,500.42 ZM 506.82 576.08 C495.52,574.48 485.48,571.22 472.09,565.29 C484.03,570.58 495.54,574.18 506.82,576.08 ZM 641.14 550.01 C639.68,551.73 638.44,553.11 637.57,553.95 C637.23,554.28 636.90,554.61 636.59,554.94 C637.24,554.18 637.97,553.36 638.75,552.53 ZM 628.49 523.64 C629.45,522.52 630.00,521.75 630.00,521.48 C630.00,521.10 631.29,519.15 632.87,517.14 C631.29,519.15 630.00,521.21 630.00,521.72 C630.00,521.88 629.45,522.57 628.49,523.64 ZM 634.00 558.54 C634.04,558.73 634.37,558.89 634.99,559.03 C634.34,558.90 634.00,558.75 634.00,558.59 Z" fill="rgb(35,179,139)"/>
<path d="M 628.49 523.64 C626.47,525.88 622.63,529.79 618.25,534.03 C617.45,534.81 616.69,535.55 615.97,536.25 C614.48,537.65 612.97,539.02 611.50,540.32 C607.25,544.06 603.44,547.95 602.80,549.17 C602.81,549.06 602.74,549.01 602.58,549.00 C602.07,549.00 600.95,549.63 600.08,550.39 C600.05,550.42 600.02,550.45 599.98,550.48 C599.48,550.37 599.25,550.53 599.44,550.90 C595.40,553.90 581.63,561.00 574.11,563.90 C554.20,571.58 533.53,574.46 515.50,572.08 C510.55,571.42 505.39,570.61 504.04,570.28 C501.75,569.72 501.71,569.62 503.54,568.91 C504.62,568.49 507.98,568.10 511.00,568.05 C519.87,567.91 533.15,565.20 535.45,563.07 C536.58,562.02 540.42,560.19 544.00,559.00 C550.77,556.74 557.00,553.41 557.00,552.04 C557.00,551.61 558.37,550.98 560.05,550.64 C561.72,550.31 564.76,548.81 566.80,547.32 C582.02,536.20 585.90,532.77 585.97,530.39 C585.99,529.77 587.78,528.04 589.95,526.53 C596.49,522.00 605.41,511.73 613.71,499.18 C620.67,488.66 626.35,472.99 629.13,457.78 C628.47,461.83 627.59,465.90 626.44,470.41 C625.85,472.75 625.99,473.22 627.17,472.76 C629.38,471.92 631.04,475.42 630.84,480.54 C630.75,483.03 631.20,485.60 631.84,486.24 C632.48,486.88 633.00,488.18 633.00,489.13 C633.00,490.08 633.71,491.56 634.57,492.43 C635.44,493.29 635.85,494.00 635.50,494.00 C635.15,494.00 635.61,494.75 636.52,495.66 C638.07,497.21 638.38,497.21 641.09,495.61 C643.91,493.94 644.00,493.95 644.00,495.90 C644.00,499.08 641.98,502.67 639.44,504.03 C638.15,504.72 637.16,505.56 637.24,505.89 C637.71,507.90 635.33,514.03 632.87,517.14 C631.29,519.15 630.00,521.10 630.00,521.48 C630.00,521.75 629.45,522.52 628.49,523.64 ZM 473.12 565.74 C472.78,565.59 472.43,565.44 472.09,565.29 C471.21,564.90 470.93,565.08 471.35,565.76 C472.10,566.97 470.52,567.59 464.50,568.46 C460.30,569.07 449.97,573.64 450.14,574.81 C450.19,575.19 450.18,576.51 450.12,577.75 C449.98,580.37 446.94,580.83 445.02,578.52 C444.34,577.71 440.58,574.95 436.65,572.39 C432.72,569.83 428.39,566.78 427.03,565.62 C424.91,563.80 424.77,563.77 426.03,565.44 C426.06,565.47 426.08,565.50 426.11,565.54 C424.51,563.82 422.85,561.97 421.07,559.92 C417.54,555.84 413.97,551.94 413.13,551.25 C412.30,550.56 411.95,550.00 412.36,550.00 C412.77,550.00 412.00,548.54 410.65,546.75 C407.40,542.44 398.48,525.61 396.55,520.15 C393.46,511.38 392.13,506.00 393.05,506.00 C393.57,506.00 394.00,506.60 394.00,507.34 C394.00,508.08 397.43,511.57 401.62,515.09 C410.23,522.33 414.00,526.07 414.00,527.36 C414.00,527.85 415.26,528.00 416.80,527.69 C419.13,527.22 420.07,527.71 422.39,530.62 C425.57,534.61 429.60,536.58 431.45,535.04 C432.30,534.34 433.24,534.61 434.58,535.94 C435.64,536.98 439.32,540.69 442.76,544.17 C451.61,553.13 461.76,560.33 473.12,565.74 ZM 567.76 569.68 C556.19,574.05 544.82,576.64 533.40,577.43 C544.61,576.59 556.50,573.89 567.76,569.68 ZM 631.92 433.45 C632.43,433.77 633.06,433.23 633.31,432.26 C633.06,433.23 632.50,433.81 632.08,433.55 C631.76,433.35 631.33,435.83 630.98,439.53 C630.98,439.41 630.98,439.30 630.98,439.19 C630.99,435.59 631.40,433.13 631.92,433.45 ZM 597.53 553.71 C595.00,555.84 590.37,558.80 585.05,561.71 C586.81,560.72 588.53,559.70 590.20,558.64 C592.97,556.88 595.48,555.18 597.53,553.71 ZM 506.82 576.08 C504.82,575.74 502.81,575.35 500.79,574.91 C503.95,575.56 507.18,576.10 510.47,576.54 C509.24,576.40 508.02,576.25 506.82,576.08 ZM 601.45 550.68 C602.08,550.14 602.50,549.70 602.69,549.42 C602.39,550.10 601.96,550.54 601.45,550.68 ZM 439.19 577.70 C439.29,577.78 439.39,577.85 439.50,577.93 C440.27,578.56 441.04,579.17 441.81,579.76 C440.90,579.06 440.03,578.37 439.19,577.70 Z" fill="rgb(69,74,49)"/>
<path d="M 486.67 631.78 L 322.00 632.01 L 322.00 587.34 C322.00,562.77 322.20,542.87 322.44,543.11 C322.69,543.35 322.97,547.27 323.08,551.80 C323.19,556.34 323.67,560.30 324.14,560.59 C324.61,560.88 325.00,562.59 325.00,564.39 C325.00,566.19 325.30,567.96 325.66,568.32 C326.65,569.32 329.00,567.00 329.00,565.03 C329.00,562.72 332.62,558.65 333.95,559.47 C334.65,559.90 335.00,570.02 335.00,589.56 L 335.00 619.00 L 359.00 619.00 L 359.00 553.12 L 363.25 552.64 C365.59,552.38 368.51,552.15 369.75,552.14 L 372.00 552.12 L 372.00 619.00 L 418.25 618.93 C452.11,618.88 463.83,618.58 462.00,617.79 C461.49,617.57 460.02,616.89 457.93,615.90 C458.08,615.96 458.22,616.02 458.37,616.08 C463.52,618.18 463.95,618.55 461.87,619.14 C460.57,619.50 456.46,619.85 452.75,619.90 C446.70,619.99 446.00,620.21 446.00,622.00 C446.00,623.10 445.50,624.00 444.89,624.00 C444.27,624.00 444.07,624.73 444.43,625.67 C444.78,626.59 444.58,627.64 443.97,628.02 C443.34,628.41 444.26,629.37 446.19,630.33 C448.14,631.29 453.45,631.68 486.67,631.78 ZM 691.16 409.72 C690.90,416.11 690.70,416.04 688.96,414.46 C687.88,413.49 687.00,411.85 687.00,410.82 C687.00,409.73 685.93,408.54 684.43,407.98 C680.80,406.59 680.50,406.69 678.92,409.73 C678.14,411.23 676.09,413.84 674.37,415.53 C671.92,417.93 671.09,419.78 670.55,424.05 C670.30,426.03 670.00,428.17 669.67,430.33 C670.78,420.06 671.40,406.09 671.73,386.25 L 672.30 352.00 L 679.00 352.00 L 679.00 279.00 L 673.00 279.00 C669.67,279.00 667.00,278.56 667.00,278.00 C667.00,277.45 667.68,277.00 668.52,277.00 C669.36,277.00 671.79,275.85 673.92,274.44 C677.05,272.37 678.49,272.00 681.40,272.55 C684.80,273.19 685.00,273.08 685.00,270.55 C685.00,269.04 684.57,268.15 684.01,268.50 C683.46,268.83 682.22,268.65 681.26,268.08 C679.86,267.27 680.39,267.05 683.82,267.03 C686.24,267.01 688.76,267.62 689.55,268.41 C690.64,269.49 690.95,291.71 691.16,409.72 ZM 439.19 577.70 C440.03,578.37 440.90,579.06 441.81,579.76 C444.94,582.18 447.95,584.61 448.50,585.15 C449.87,586.52 443.89,583.93 441.92,582.31 C439.69,580.46 437.72,580.68 435.73,583.00 C434.79,584.10 433.19,585.00 432.18,585.00 C429.85,585.00 426.45,588.89 426.51,591.50 C426.53,592.60 425.96,594.11 425.24,594.86 C424.25,595.89 424.21,596.55 425.08,597.59 C425.71,598.36 426.56,598.77 426.97,598.52 C427.38,598.27 428.75,599.17 430.03,600.53 C431.30,601.89 433.10,603.00 434.02,603.00 C434.94,603.00 436.55,603.95 437.60,605.11 C438.30,605.89 439.84,606.97 441.96,608.21 C419.35,597.05 403.09,584.44 388.11,566.50 C379.39,556.05 378.17,554.42 379.79,555.39 C380.51,555.82 381.74,555.63 382.54,554.96 C384.27,553.53 384.52,551.56 382.85,552.60 C382.12,553.05 381.96,552.87 382.43,552.11 C382.84,551.45 382.57,550.14 381.84,549.21 C380.63,547.67 380.67,547.63 382.27,548.89 C383.79,550.09 384.29,550.04 385.90,548.59 C386.93,547.66 389.37,546.46 391.33,545.92 C394.61,545.01 395.33,545.24 400.09,548.66 L 405.27 552.38 L 406.96 550.30 C408.49,548.41 408.75,548.37 409.72,549.86 C410.64,551.26 410.99,551.30 412.15,550.10 C412.26,549.98 412.37,549.87 412.46,549.77 C412.49,549.92 412.46,550.00 412.36,550.00 C411.95,550.00 412.30,550.56 413.13,551.25 C413.97,551.94 417.54,555.84 421.07,559.92 C422.85,561.97 424.51,563.82 426.11,565.54 C428.67,568.87 433.48,573.26 439.19,577.70 ZM 655.00 314.61 L 655.00 350.00 L 642.00 350.00 L 642.00 314.56 C642.00,290.12 642.34,278.91 643.09,278.45 C644.76,277.41 646.40,279.67 646.60,283.26 C646.87,287.90 646.90,288.00 648.00,288.00 C648.55,288.00 649.00,285.93 649.00,283.39 C649.00,279.71 649.30,278.90 650.50,279.36 C651.33,279.68 652.00,279.52 652.00,279.00 C652.00,278.48 652.67,278.32 653.50,278.64 C654.79,279.14 655.00,284.07 655.00,314.61 ZM 646.64 375.51 C645.81,376.33 645.00,376.96 644.82,376.92 C642.99,376.47 642.00,375.59 642.00,374.42 C642.00,373.64 641.59,373.00 641.09,373.00 C640.59,373.00 640.30,371.89 640.45,370.53 C640.60,369.17 640.40,368.25 640.01,368.49 C639.21,368.99 636.42,364.25 637.11,363.55 C637.36,363.31 639.08,362.84 640.95,362.51 C642.81,362.18 644.70,361.68 645.15,361.40 C645.61,361.12 645.68,361.67 645.32,362.61 C644.87,363.77 645.04,364.09 645.82,363.61 C646.58,363.14 646.77,363.43 646.38,364.45 C646.01,365.43 646.34,366.00 647.29,366.00 C649.43,366.00 650.01,368.27 648.42,370.44 C647.67,371.46 647.30,372.68 647.60,373.15 C647.89,373.63 647.46,374.69 646.64,375.51 ZM 338.47 552.00 C335.75,552.00 334.75,552.50 334.13,554.18 C333.33,556.35 333.32,556.35 332.70,553.94 C331.94,551.04 332.75,550.09 336.59,549.40 C338.19,549.12 339.65,548.46 339.83,547.94 C340.51,546.02 342.00,547.09 342.00,549.50 C342.00,551.69 341.57,552.00 338.47,552.00 ZM 412.22 549.16 C412.07,549.21 411.90,549.27 411.70,549.34 C410.71,549.69 410.15,549.57 410.46,549.07 C410.73,548.64 408.91,544.61 406.27,539.67 C408.03,542.78 409.62,545.39 410.65,546.75 C411.37,547.71 411.93,548.57 412.22,549.16 ZM 666.49 447.49 C666.60,447.14 666.71,446.78 666.81,446.42 C666.51,447.76 666.25,448.75 666.06,449.24 C665.92,449.60 665.80,449.64 665.70,449.38 C665.88,449.34 666.13,448.65 666.49,447.49 ZM 401.21 530.25 C399.58,527.05 398.17,524.12 397.41,522.29 C398.33,524.43 399.69,527.26 401.21,530.25 Z" fill="rgb(73,175,93)"/>
<path d="M 631.92 433.45 C631.40,433.13 630.99,435.59 630.98,439.19 C630.98,439.30 630.98,439.41 630.98,439.53 C630.86,440.82 630.75,442.26 630.65,443.78 C630.50,446.37 630.29,448.81 630.03,451.20 C631.70,434.73 629.86,417.39 624.45,399.50 C621.48,389.68 614.32,375.37 602.21,355.05 C591.73,337.47 590.99,334.42 596.50,331.40 C599.36,329.84 600.95,324.40 599.78,320.18 C599.17,317.96 599.19,316.41 599.84,315.76 C600.39,315.21 600.62,314.18 600.35,313.48 C599.94,312.39 600.06,311.78 600.60,311.62 L 602.40 313.75 C604.20,315.86 605.00,316.46 605.00,315.65 C605.00,315.47 603.99,314.45 602.75,313.40 L 600.63 311.61 C601.70,311.34 604.26,312.69 607.45,315.41 C610.40,317.94 613.20,320.04 613.66,320.08 C615.29,320.23 630.18,337.62 637.15,347.50 C641.12,353.13 645.09,359.72 648.60,366.39 C648.26,366.14 647.82,366.00 647.29,366.00 C646.34,366.00 646.01,365.43 646.38,364.45 C646.77,363.43 646.58,363.14 645.82,363.61 C645.04,364.09 644.87,363.77 645.32,362.61 C645.68,361.67 645.61,361.12 645.15,361.40 C644.70,361.68 642.81,362.18 640.95,362.51 C639.08,362.84 637.36,363.31 637.11,363.55 C636.42,364.25 639.21,368.99 640.01,368.49 C640.40,368.25 640.60,369.17 640.45,370.53 C640.30,371.89 640.59,373.00 641.09,373.00 C641.59,373.00 642.00,373.64 642.00,374.42 C642.00,375.59 642.99,376.47 644.82,376.92 C645.00,376.96 645.81,376.33 646.64,375.51 C647.46,374.69 647.89,373.63 647.60,373.15 C647.30,372.68 647.67,371.46 648.42,370.44 C649.10,369.51 649.39,368.56 649.31,367.77 C652.34,373.64 654.98,379.53 656.94,384.87 C661.27,396.68 664.32,411.71 665.41,425.50 L 662.50 425.58 C660.85,425.63 659.14,425.06 658.70,424.33 C657.75,422.75 656.00,422.56 656.00,424.04 C656.00,424.61 655.07,426.08 653.93,427.29 C652.80,428.51 651.15,431.01 650.27,432.86 C649.39,434.71 646.52,438.54 643.91,441.36 L 639.15 446.50 L 637.57 442.78 C636.71,440.74 636.00,438.40 636.00,437.59 C636.00,436.78 635.55,435.84 635.00,435.50 C634.45,435.16 633.95,433.90 633.88,432.69 C633.79,430.98 633.67,430.89 633.31,432.26 C633.06,433.23 632.43,433.77 631.92,433.45 ZM 410.40 548.47 C410.49,548.78 410.51,548.99 410.46,549.07 C410.18,549.52 410.61,549.67 411.44,549.42 C411.68,549.60 411.89,549.72 412.07,549.77 C412.19,549.80 412.30,549.82 412.39,549.85 C412.32,549.92 412.24,550.01 412.15,550.10 C410.99,551.30 410.64,551.26 409.72,549.86 C408.75,548.37 408.49,548.41 406.96,550.30 L 405.27 552.38 L 400.09 548.66 C395.33,545.24 394.61,545.01 391.33,545.92 C389.37,546.46 386.93,547.66 385.90,548.59 C384.29,550.04 383.79,550.09 382.27,548.89 C380.67,547.63 380.63,547.67 381.84,549.21 C382.57,550.14 382.84,551.45 382.43,552.11 C381.96,552.87 382.12,553.05 382.85,552.60 C384.52,551.56 384.27,553.53 382.54,554.96 C381.74,555.63 380.51,555.82 379.79,555.39 C379.51,555.22 379.31,555.13 379.23,555.15 C378.24,553.70 377.33,552.27 376.51,550.88 C375.41,549.02 373.04,545.03 371.23,542.00 C365.62,532.58 362.38,525.84 358.73,516.00 C355.71,507.86 354.53,503.38 351.44,488.30 C350.92,485.78 352.14,485.45 365.08,484.54 C372.12,484.05 372.83,484.19 374.90,486.39 C376.59,488.19 377.97,488.69 380.57,488.44 C383.59,488.14 384.00,488.38 384.00,490.42 C384.00,495.42 390.23,514.05 395.39,524.50 C400.21,534.25 406.92,544.83 410.40,548.47 ZM 342.00 551.88 L 338.25 552.19 C334.63,552.49 334.50,552.63 334.55,556.25 C334.56,557.11 334.59,560.19 334.62,564.67 C334.45,561.38 334.23,559.64 333.95,559.47 C332.62,558.65 329.00,562.72 329.00,565.03 C329.00,567.00 326.65,569.32 325.66,568.32 C325.30,567.96 325.00,566.19 325.00,564.39 C325.00,562.59 324.61,560.88 324.14,560.59 C323.67,560.30 323.19,556.34 323.08,551.80 C323.01,548.54 322.83,545.60 322.65,544.11 C323.24,507.34 324.15,499.26 326.66,498.30 C328.25,497.69 332.00,500.66 332.00,502.53 C332.00,503.20 333.24,504.00 334.76,504.30 C337.01,504.75 337.77,505.70 338.87,509.43 C339.61,511.94 340.62,514.00 341.11,514.00 C341.60,514.00 342.00,522.52 342.00,532.94 L 342.00 551.88 ZM 691.16 409.72 C690.95,291.71 690.64,269.49 689.55,268.41 C688.76,267.62 686.24,267.01 683.82,267.03 C680.39,267.05 679.86,267.27 681.26,268.08 C682.22,268.65 683.46,268.83 684.01,268.50 C684.57,268.15 685.00,269.04 685.00,270.55 C685.00,273.08 684.80,273.19 681.40,272.55 C678.49,272.00 677.05,272.37 673.92,274.44 C671.79,275.85 669.36,277.00 668.52,277.00 C667.68,277.00 667.00,277.45 667.00,278.00 C667.00,278.56 669.67,279.00 673.00,279.00 L 655.00 279.00 L 655.00 314.50 C655.00,284.06 654.79,279.13 653.50,278.64 C652.67,278.32 652.00,278.48 652.00,279.00 C652.00,279.52 651.33,279.68 650.50,279.36 C649.30,278.90 649.00,279.71 649.00,283.39 C649.00,285.93 648.55,288.00 648.00,288.00 C646.90,288.00 646.87,287.90 646.60,283.26 C646.40,279.67 644.76,277.41 643.09,278.45 C642.34,278.91 642.00,290.10 642.00,314.50 L 642.00 279.00 L 628.00 279.00 C619.33,279.00 614.00,278.62 614.00,278.00 C614.00,277.45 613.30,277.00 612.44,277.00 C611.58,277.00 611.16,276.55 611.50,276.00 C611.84,275.45 611.42,275.00 610.56,275.00 C609.70,275.00 609.00,274.59 609.00,274.08 C609.00,273.58 607.79,272.76 606.30,272.27 C603.72,271.41 603.81,271.32 608.55,270.10 C611.27,269.40 614.53,268.42 615.80,267.92 C617.06,267.41 634.44,267.00 654.42,267.00 L 690.75 267.00 L 691.44 399.25 C691.82,471.99 691.99,554.00 691.82,581.50 L 691.50 631.50 L 691.55 515.00 C691.57,453.91 691.45,407.03 691.28,407.03 C691.27,407.03 691.26,407.14 691.26,407.37 C691.22,408.24 691.19,409.02 691.16,409.72 ZM 338.47 552.00 C341.57,552.00 342.00,551.69 342.00,549.50 C342.00,547.09 340.51,546.02 339.83,547.94 C339.65,548.46 338.19,549.12 336.59,549.40 C332.75,550.09 331.94,551.04 332.70,553.94 C333.32,556.35 333.33,556.35 334.13,554.18 C334.75,552.50 335.75,552.00 338.47,552.00 ZM 321.68 632.01 L 322.00 601.41 L 322.00 632.01 ZM 665.41 446.91 C665.41,446.83 665.40,446.75 665.40,446.67 C665.46,444.65 665.50,442.38 665.50,439.93 L 665.50 426.75 C665.88,432.14 665.95,437.31 665.68,442.00 C665.55,444.09 665.46,445.71 665.41,446.91 ZM 621.29 484.59 C619.03,490.03 616.47,495.01 613.71,499.18 C613.08,500.14 612.44,501.09 611.80,502.01 C615.51,496.39 618.67,490.58 621.29,484.59 ZM 382.61 559.86 C383.96,561.51 385.77,563.69 388.11,566.50 C389.28,567.90 390.45,569.26 391.64,570.59 C388.33,567.00 385.28,563.38 382.61,559.86 ZM 589.95 526.53 C592.86,524.52 597.34,520.18 601.55,515.43 C597.32,520.34 593.32,524.20 589.95,526.53 ZM 454.24 614.33 C455.45,614.86 456.68,615.38 457.93,615.90 C460.02,616.89 461.49,617.57 462.00,617.79 C459.41,616.68 456.82,615.52 454.24,614.33 ZM 438.03 606.22 C439.32,606.89 440.63,607.55 441.96,608.21 C442.50,608.53 443.08,608.86 443.69,609.19 C441.77,608.21 439.88,607.22 438.03,606.22 ZM 666.49 447.49 C666.18,448.50 665.94,449.16 665.77,449.33 C665.93,448.97 666.15,448.34 666.42,447.49 C666.61,446.92 666.79,446.33 666.96,445.72 C666.91,445.96 666.86,446.19 666.81,446.42 C666.71,446.78 666.60,447.14 666.49,447.49 ZM 669.67 430.36 C670.43,423.32 670.96,414.49 671.33,403.22 C670.97,414.47 670.43,423.27 669.67,430.33 ZM 412.22 549.16 C412.24,549.20 412.26,549.23 412.27,549.26 C412.24,549.24 412.22,549.21 412.19,549.18 ZM 398.37 524.47 C397.99,523.65 397.67,522.92 397.41,522.29 C397.66,522.91 397.99,523.64 398.37,524.47 Z" fill="rgb(83,146,74)"/>
<path d="M 383.71 488.82 C383.32,488.28 382.45,488.25 380.57,488.44 C377.97,488.69 376.59,488.19 374.90,486.39 C372.83,484.19 372.12,484.05 365.08,484.54 C355.30,485.23 352.22,485.58 351.51,486.80 C350.93,482.33 350.54,477.74 350.33,473.00 C349.69,458.56 350.77,447.12 353.93,434.78 C355.94,426.94 363.15,409.39 365.10,407.60 C366.00,406.77 366.09,406.87 365.45,408.00 C364.79,409.19 364.92,409.27 366.06,408.42 C367.95,407.00 375.00,406.64 375.00,407.97 C375.00,408.54 375.67,409.00 376.50,409.00 C377.33,409.00 378.00,409.51 378.00,410.13 C378.00,410.86 379.22,411.06 381.48,410.70 C383.39,410.39 384.88,410.44 384.79,410.82 C384.70,411.19 385.38,413.23 386.30,415.34 C388.16,419.62 389.83,419.72 391.80,415.68 C392.52,414.20 393.50,413.00 393.99,413.00 C394.47,413.00 395.17,412.05 395.53,410.90 C395.92,409.67 396.57,409.17 397.09,409.69 C397.61,410.21 396.33,413.87 394.00,418.49 C386.60,433.24 383.25,446.15 382.32,463.50 C381.86,472.08 382.32,480.48 383.71,488.82 ZM 384.00 490.48 C384.85,495.15 385.99,499.79 387.44,504.44 C385.42,498.30 384.02,492.89 384.00,490.48 ZM 395.01 523.50 C398.06,529.82 401.78,536.34 405.03,541.31 C401.87,536.53 398.29,530.37 395.39,524.50 C394.24,522.17 393.04,519.44 391.86,516.54 C392.84,518.86 393.89,521.17 395.01,523.50 ZM 352.79 494.79 C354.95,504.90 356.19,509.16 358.73,516.00 C359.96,519.34 361.15,522.32 362.41,525.17 C357.93,515.23 354.78,505.27 352.79,494.79 Z" fill="rgb(110,96,56)"/>
<path d="M 566.20 534.90 C558.99,538.58 559.03,537.50 566.29,532.68 C569.20,530.75 573.41,527.44 575.65,525.33 C577.88,523.23 581.12,520.38 582.85,519.01 C584.75,517.51 586.00,515.61 586.00,514.22 C586.00,512.64 586.51,512.01 587.62,512.21 C589.35,512.52 590.25,511.25 591.65,506.50 C592.26,504.45 593.28,503.39 594.88,503.17 C596.88,502.88 597.13,502.41 596.64,499.95 C596.22,497.85 596.55,496.72 597.88,495.78 C599.75,494.46 600.97,491.43 603.38,482.11 C604.43,478.05 604.55,474.97 603.85,469.61 C603.34,465.70 603.01,458.00 603.12,452.50 C603.23,447.00 602.97,440.61 602.54,438.29 C601.96,435.21 602.19,432.98 603.40,429.96 C604.98,426.01 604.97,425.68 603.05,422.58 C601.92,420.74 601.11,417.81 601.18,415.80 C601.34,411.50 595.54,400.56 591.17,396.94 C589.55,395.60 586.29,390.78 583.94,386.24 C581.59,381.70 577.26,375.07 574.33,371.52 C571.40,367.96 569.00,364.83 569.00,364.56 C569.00,363.17 576.53,368.77 577.91,371.18 C579.59,374.13 581.58,375.38 583.09,374.44 C585.04,373.24 583.82,370.27 579.54,365.81 C575.33,361.41 575.12,360.92 575.63,356.70 C575.95,354.12 575.75,351.96 575.16,351.60 C574.60,351.25 574.34,349.88 574.58,348.55 C574.82,347.22 574.56,345.85 574.01,345.50 C573.45,345.16 573.00,341.58 573.00,337.55 C573.00,329.71 574.16,327.95 577.98,329.99 C580.13,331.14 597.00,349.61 597.00,350.81 C597.00,351.26 597.85,352.54 598.89,353.66 C599.94,354.77 601.58,357.22 602.55,359.09 C603.51,360.96 605.82,364.78 607.68,367.57 C609.54,370.37 612.64,376.67 614.57,381.58 C628.47,416.91 628.11,452.00 613.51,484.49 C604.62,504.26 584.75,525.44 566.20,534.90 ZM 384.03 447.87 C385.83,437.62 388.99,428.47 394.00,418.49 C396.33,413.87 397.61,410.21 397.09,409.69 C396.57,409.17 395.92,409.67 395.53,410.90 C395.17,412.05 394.47,413.00 393.99,413.00 C393.50,413.00 392.52,414.20 391.80,415.68 C389.83,419.72 388.16,419.62 386.30,415.34 C385.38,413.23 384.70,411.19 384.79,410.82 C384.88,410.44 383.39,410.39 381.48,410.70 C379.22,411.06 378.00,410.86 378.00,410.13 C378.00,409.51 377.33,409.00 376.50,409.00 C375.67,409.00 375.00,408.54 375.00,407.97 C375.00,406.64 367.95,407.00 366.06,408.42 C364.92,409.27 364.79,409.19 365.45,408.00 C366.05,406.94 366.01,406.79 365.25,407.46 C366.72,405.20 369.03,401.51 370.92,398.40 C377.86,386.93 380.56,383.62 391.10,373.60 C415.78,350.13 443.39,338.16 476.97,336.36 C499.83,335.14 525.19,342.25 544.33,355.23 C552.11,360.50 550.93,361.17 542.87,356.06 C539.37,353.84 535.31,352.01 533.85,352.01 C532.40,352.00 528.48,350.65 525.14,348.99 C519.18,346.03 518.81,345.98 504.29,346.08 C488.97,346.18 477.20,348.02 466.50,351.96 C463.75,352.97 459.94,354.31 458.04,354.92 C456.14,355.54 453.67,356.87 452.54,357.89 C451.42,358.90 448.72,360.01 446.54,360.34 C441.86,361.05 434.38,366.18 434.79,368.39 C434.96,369.35 434.10,370.19 432.54,370.58 C429.88,371.25 429.17,373.77 431.10,375.70 C431.91,376.51 430.62,377.82 426.35,380.53 C418.03,385.82 405.40,399.16 399.22,409.16 C391.68,421.38 386.61,434.42 384.03,447.87 ZM 433.88 535.31 C432.90,534.54 432.14,534.47 431.45,535.04 C429.60,536.58 425.57,534.61 422.39,530.62 C420.07,527.71 419.13,527.22 416.80,527.69 C415.26,528.00 414.00,527.85 414.00,527.36 C414.00,526.07 410.23,522.33 401.62,515.09 C397.43,511.57 394.00,508.08 394.00,507.34 C394.00,506.60 393.57,506.00 393.05,506.00 C392.59,506.00 392.69,507.36 393.31,509.84 C389.30,495.77 387.76,482.71 388.31,468.00 C389.08,447.27 393.43,432.17 403.57,415.05 C409.41,405.18 423.98,389.44 433.14,383.09 C437.70,379.94 438.82,379.43 437.09,381.33 C435.77,382.78 433.85,384.23 432.83,384.55 C431.81,384.88 431.24,385.59 431.58,386.13 C431.91,386.67 430.12,388.96 427.59,391.23 C425.07,393.50 423.00,396.18 423.00,397.18 C423.00,398.18 422.55,399.06 422.00,399.12 C421.45,399.19 420.55,399.36 420.00,399.50 C419.45,399.64 418.33,399.81 417.50,399.88 C416.44,399.96 416.00,401.17 416.00,404.02 C416.00,407.44 415.61,408.20 413.40,409.04 C411.24,409.86 410.90,410.47 411.43,412.58 C411.89,414.42 411.22,416.62 409.04,420.44 C406.25,425.30 406.00,426.52 406.00,435.05 C406.00,440.17 405.46,445.86 404.79,447.70 C403.54,451.15 404.57,457.79 408.53,472.00 C409.38,475.02 410.52,481.04 411.08,485.37 C411.78,490.81 412.84,494.34 414.51,496.80 C415.84,498.75 417.66,502.86 418.55,505.93 C420.89,513.94 424.15,521.00 425.52,521.00 C426.17,521.00 427.92,523.87 429.41,527.37 C430.73,530.49 432.63,533.83 433.88,535.31 ZM 589.95 526.53 C587.78,528.04 585.99,529.77 585.97,530.39 C585.90,532.77 582.02,536.20 566.80,547.32 C564.76,548.81 561.72,550.31 560.05,550.64 C558.37,550.98 557.00,551.61 557.00,552.04 C557.00,553.41 550.77,556.74 544.00,559.00 C540.42,560.19 536.58,562.02 535.45,563.07 C533.15,565.20 519.87,567.91 511.00,568.05 C507.98,568.10 504.62,568.49 503.54,568.91 C502.41,569.35 502.00,569.55 502.38,569.78 C493.85,567.77 485.44,564.77 477.21,560.77 C466.69,555.67 457.60,549.04 447.67,539.23 C439.60,531.27 431.82,521.46 434.17,522.21 C434.90,522.44 435.94,523.61 436.49,524.81 C437.03,526.02 437.82,527.00 438.25,527.00 C438.67,527.00 440.42,528.34 442.14,529.98 C443.85,531.62 445.76,532.67 446.38,532.32 C446.99,531.97 447.21,532.00 446.86,532.40 C446.50,532.80 448.33,535.10 450.91,537.51 C454.40,540.78 456.62,542.02 459.52,542.34 C462.07,542.62 463.93,543.51 464.84,544.89 C466.14,546.84 467.14,547.00 478.37,547.00 C485.04,547.00 494.10,547.61 498.50,548.35 C514.87,551.09 539.59,549.94 553.50,545.78 C561.69,543.33 574.44,537.72 575.42,536.13 C575.79,535.53 579.15,533.25 582.88,531.07 C587.07,528.62 590.65,526.13 594.07,523.13 C592.52,524.56 591.11,525.73 589.95,526.53 ZM 567.05 361.09 C568.78,364.32 567.64,364.28 564.50,361.00 C561.30,357.66 561.53,356.48 565.10,357.92 C566.42,358.44 567.15,358.90 566.71,358.94 C566.28,358.97 566.43,359.94 567.05,361.09 ZM 558.97 367.25 C558.99,367.66 558.57,368.00 558.04,368.00 C556.87,368.00 552.85,363.82 553.44,363.22 C553.99,362.68 558.93,366.27 558.97,367.25 ZM 611.53 371.28 C618.13,383.31 622.34,392.53 624.45,399.50 C624.74,400.47 625.03,401.45 625.30,402.42 C622.41,392.92 618.09,383.28 611.53,371.28 ZM 352.79 494.79 C353.65,499.31 354.72,503.75 356.03,508.12 C354.81,504.13 353.76,500.08 352.87,495.96 C352.54,494.42 352.24,492.72 351.97,490.90 C352.26,492.29 352.53,493.58 352.79,494.79 ZM 402.33 532.40 C403.63,534.89 404.99,537.41 406.27,539.67 C407.01,541.05 407.68,542.36 408.26,543.53 C406.45,540.47 404.35,536.53 402.33,532.40 ZM 352.35 441.00 C352.69,439.45 353.13,437.71 353.66,435.85 C352.57,440.26 351.75,444.57 351.17,448.96 C351.47,445.95 351.87,443.25 352.35,441.00 ZM 613.51 499.36 C612.95,500.25 612.38,501.13 611.80,502.01 C609.35,505.58 606.87,508.92 604.43,511.96 C607.10,508.56 609.94,504.61 613.13,499.92 C613.26,499.73 613.38,499.54 613.51,499.36 ZM 629.36 421.59 C629.86,425.12 630.21,428.62 630.41,432.09 C630.14,428.40 629.80,424.92 629.36,421.59 ZM 362.55 412.04 C361.32,414.62 359.87,418.03 358.48,421.53 C359.88,417.91 361.30,414.57 362.55,412.04 ZM 455.38 555.11 C450.92,551.81 446.71,548.16 442.76,544.17 C441.27,542.66 439.74,541.12 438.40,539.77 C439.77,541.13 441.29,542.66 442.76,544.15 C446.70,548.15 450.91,551.81 455.38,555.11 ZM 351.47 486.90 C351.37,486.00 351.28,485.09 351.19,484.16 C351.29,485.04 351.40,485.93 351.51,486.80 C351.50,486.83 351.48,486.87 351.47,486.90 ZM 628.84 459.34 C629.18,457.48 629.47,455.61 629.73,453.75 C629.55,455.10 629.35,456.44 629.13,457.78 C629.04,458.30 628.94,458.82 628.84,459.34 ZM 510.19 571.33 C511.57,571.53 513.07,571.75 514.56,571.95 C513.10,571.77 511.65,571.56 510.19,571.33 ZM 412.39 549.84 L 412.39 549.85 C412.30,549.83 412.19,549.80 412.08,549.77 C412.20,549.80 412.30,549.83 412.39,549.84 Z" fill="rgb(127,53,36)"/>
<path d="M 413.29 391.71 C417.86,387.03 422.56,382.94 426.35,380.53 C430.62,377.82 431.91,376.51 431.10,375.70 C429.17,373.77 429.88,371.25 432.54,370.58 C434.10,370.19 434.96,369.35 434.79,368.39 C434.38,366.18 441.86,361.05 446.54,360.34 C448.72,360.01 451.42,358.90 452.54,357.89 C453.67,356.87 456.14,355.54 458.04,354.92 C459.94,354.31 463.75,352.97 466.50,351.96 C477.20,348.02 488.97,346.18 504.29,346.08 C518.81,345.98 519.18,346.03 525.14,348.99 C528.48,350.65 532.40,352.00 533.85,352.01 C535.31,352.01 539.37,353.84 542.87,356.06 C550.93,361.17 552.11,360.50 544.33,355.23 C541.52,353.32 538.59,351.55 535.54,349.91 C543.23,353.96 550.11,358.78 555.64,364.14 C554.60,363.46 553.66,363.00 553.44,363.22 C552.85,363.82 556.87,368.00 558.04,368.00 C558.44,368.00 558.78,367.80 558.91,367.53 C560.82,369.56 563.41,372.23 565.11,373.92 C574.16,382.89 582.45,397.13 587.39,412.16 C591.37,424.26 592.55,430.00 591.05,430.00 C590.47,430.00 590.00,429.36 590.00,428.58 C590.00,427.79 588.94,425.88 587.64,424.33 C586.35,422.77 584.67,419.02 583.92,416.00 C583.17,412.98 580.86,408.02 578.78,405.00 C576.70,401.98 575.00,398.95 575.00,398.27 C575.00,397.60 573.85,396.29 572.45,395.38 C571.05,394.46 570.13,393.11 570.40,392.39 C570.69,391.66 569.49,390.10 567.70,388.88 C565.94,387.67 563.12,385.39 561.43,383.82 C559.74,382.24 557.42,380.77 556.28,380.55 C555.13,380.33 552.91,379.49 551.35,378.68 C549.78,377.87 546.61,376.70 544.30,376.08 C541.98,375.46 538.72,373.79 537.04,372.38 C534.76,370.46 532.20,369.59 526.94,368.93 C523.06,368.44 517.80,367.33 515.24,366.46 C500.77,361.55 477.91,360.21 463.15,363.42 C455.43,365.10 443.54,369.42 441.00,371.48 C440.17,372.14 435.45,375.10 430.50,378.04 C424.77,381.45 418.77,386.27 413.29,391.71 ZM 546.00 542.07 C542.42,543.07 537.70,543.83 535.50,543.77 C527.58,543.54 523.00,542.87 523.00,541.94 C523.00,541.42 522.66,541.11 522.25,541.25 C521.84,541.39 521.44,541.05 521.36,540.50 C521.28,539.95 523.29,538.90 525.83,538.16 C530.89,536.68 546.78,527.46 548.72,524.87 C549.39,523.98 551.87,522.33 554.22,521.21 C559.18,518.85 579.18,499.68 583.80,492.86 C596.31,474.40 601.03,452.66 598.07,427.20 C596.53,413.97 595.01,408.97 588.27,395.00 C585.58,389.43 583.41,385.21 581.32,381.63 C582.32,383.26 583.22,384.85 583.94,386.24 C586.29,390.78 589.55,395.60 591.17,396.94 C595.54,400.56 601.34,411.50 601.18,415.80 C601.11,417.81 601.92,420.74 603.05,422.58 C604.97,425.68 604.98,426.01 603.40,429.96 C602.19,432.98 601.96,435.21 602.54,438.29 C602.97,440.61 603.23,447.00 603.12,452.50 C603.01,458.00 603.34,465.70 603.85,469.61 C604.55,474.97 604.43,478.05 603.38,482.11 C600.97,491.43 599.75,494.46 597.88,495.78 C596.55,496.72 596.22,497.85 596.64,499.95 C597.13,502.41 596.88,502.88 594.88,503.17 C593.28,503.39 592.26,504.45 591.65,506.50 C590.25,511.25 589.35,512.52 587.62,512.21 C586.51,512.01 586.00,512.64 586.00,514.22 C586.00,515.61 584.75,517.51 582.85,519.01 C581.12,520.38 577.88,523.23 575.65,525.33 C573.41,527.44 569.20,530.75 566.29,532.68 C562.29,535.34 560.48,536.86 560.87,537.07 C556.42,538.91 551.54,540.53 546.00,542.07 ZM 417.63 503.22 C416.69,500.76 415.47,498.21 414.51,496.80 C412.84,494.34 411.78,490.81 411.08,485.37 C410.52,481.04 409.38,475.02 408.53,472.00 C404.57,457.79 403.54,451.15 404.79,447.70 C405.46,445.86 406.00,440.17 406.00,435.05 C406.00,426.52 406.25,425.30 409.04,420.44 C411.22,416.62 411.89,414.42 411.43,412.58 C410.90,410.47 411.24,409.86 413.40,409.04 C415.61,408.20 416.00,407.44 416.00,404.02 C416.00,401.17 416.44,399.96 417.50,399.88 C418.33,399.81 419.45,399.64 420.00,399.50 C420.55,399.36 421.45,399.19 422.00,399.12 C422.55,399.06 423.00,398.18 423.00,397.18 C423.00,396.18 425.07,393.50 427.59,391.23 C430.12,388.96 431.91,386.67 431.58,386.13 C431.24,385.59 431.81,384.88 432.83,384.55 C433.85,384.23 435.77,382.78 437.09,381.33 C438.82,379.43 437.70,379.94 433.14,383.09 C426.35,387.80 416.58,397.67 409.61,406.48 C416.40,397.87 425.83,388.22 432.40,383.54 C445.67,374.08 461.30,367.64 466.33,369.57 C468.42,370.37 468.44,371.41 466.43,373.43 C465.56,374.29 465.16,375.00 465.53,375.00 C465.90,375.00 463.64,376.35 460.51,377.99 C454.40,381.21 443.50,392.08 437.60,400.85 C428.37,414.56 417.33,438.78 414.51,451.50 C412.41,460.93 412.05,481.89 413.85,489.50 C414.94,494.14 416.26,498.87 417.63,503.22 ZM 542.11 548.21 C528.40,550.27 511.02,550.45 498.50,548.35 C494.10,547.61 485.04,547.00 478.37,547.00 C467.14,547.00 466.14,546.84 464.84,544.89 C463.93,543.51 462.07,542.62 459.52,542.34 C456.62,542.02 454.40,540.78 450.91,537.51 C448.33,535.10 446.50,532.80 446.86,532.40 C447.21,532.00 446.99,531.97 446.38,532.32 C445.76,532.67 443.85,531.62 442.14,529.98 C440.42,528.34 438.67,527.00 438.25,527.00 C437.82,527.00 437.03,526.02 436.49,524.81 C435.94,523.61 434.90,522.44 434.17,522.21 C433.73,522.07 433.65,522.29 433.85,522.81 C429.32,515.58 424.22,505.50 422.48,500.00 C421.52,496.98 420.28,493.93 419.73,493.23 C418.85,492.12 418.99,488.36 420.39,476.26 C420.78,472.94 422.00,472.24 422.00,475.33 C422.00,476.80 422.39,478.00 422.87,478.00 C423.35,478.00 424.00,479.59 424.31,481.52 C424.62,483.46 426.52,487.62 428.52,490.77 C430.52,493.92 434.37,499.99 437.06,504.25 C439.75,508.51 442.63,512.00 443.45,512.00 C444.27,512.00 445.94,513.35 447.16,515.00 C448.38,516.65 449.95,518.00 450.65,518.00 C451.36,518.00 453.47,519.35 455.35,521.00 C457.23,522.65 459.07,524.00 459.45,524.00 C459.83,524.00 462.25,525.46 464.82,527.25 C467.39,529.04 470.24,530.95 471.14,531.50 C494.77,545.90 503.41,548.48 528.00,548.47 C534.59,548.47 538.87,548.42 542.11,548.21 ZM 567.05 361.09 C566.43,359.94 566.28,358.97 566.71,358.94 C567.15,358.90 566.42,358.44 565.10,357.92 C563.12,357.12 562.16,357.13 562.26,357.87 C561.48,356.68 561.22,355.88 561.41,355.38 C561.76,354.46 562.33,354.00 562.67,354.34 C563.02,354.69 563.88,354.19 564.60,353.23 C565.77,351.66 566.00,351.80 567.04,354.75 C567.69,356.56 568.93,358.04 569.85,358.08 C570.76,358.13 572.43,358.27 573.56,358.40 C574.70,358.53 575.27,358.30 575.56,357.30 C575.15,360.98 575.53,361.63 579.54,365.81 C583.82,370.27 585.04,373.24 583.09,374.44 C581.58,375.38 579.59,374.13 577.91,371.18 C576.53,368.77 569.00,363.17 569.00,364.56 C569.00,364.83 571.40,367.96 574.33,371.52 C574.98,372.31 575.70,373.25 576.46,374.29 C574.20,371.30 571.67,368.45 568.40,365.03 C567.52,364.10 566.73,363.25 566.02,362.48 C567.96,364.19 568.46,363.73 567.05,361.09 ZM 615.06 480.89 C620.91,466.79 624.11,452.21 624.65,437.35 C624.15,452.64 620.90,467.36 615.06,480.89 ZM 436.65 526.98 C439.30,530.39 443.44,535.07 447.67,539.23 C449.93,541.47 452.15,543.54 454.35,545.46 C447.61,539.77 441.46,533.46 436.98,527.44 C436.87,527.29 436.76,527.14 436.65,526.98 ZM 591.12 516.08 C585.77,521.41 580.83,525.65 575.66,529.16 C585.92,521.98 595.95,511.92 603.70,501.18 C599.98,506.46 595.78,511.44 591.12,516.08 ZM 418.94 507.23 C421.64,515.16 424.29,520.99 425.52,521.00 C424.22,520.99 421.24,514.68 418.94,507.23 ZM 612.16 376.02 C610.58,372.62 608.88,369.37 607.68,367.57 C609.09,369.70 610.63,372.62 612.16,376.02 ZM 384.03 447.87 C385.87,438.30 388.96,428.94 393.31,419.94 C388.94,429.01 385.83,438.43 384.00,448.05 C384.01,447.99 384.02,447.93 384.03,447.87 ZM 575.10 351.56 C574.57,351.23 574.34,349.88 574.58,348.55 C574.34,349.88 574.60,351.25 575.16,351.60 C575.37,351.73 575.52,352.07 575.63,352.58 C575.50,352.07 575.31,351.69 575.10,351.56 Z" fill="rgb(170,51,36)"/>
<path d="M 575.10 351.56 C575.31,351.69 575.50,352.07 575.63,352.58 C575.83,353.53 575.84,355.02 575.63,356.70 C575.61,356.90 575.58,357.10 575.56,357.30 C575.27,358.30 574.70,358.53 573.56,358.40 C572.43,358.27 570.76,358.13 569.85,358.08 C568.93,358.04 567.69,356.56 567.04,354.75 C566.00,351.80 565.77,351.66 564.60,353.23 C563.88,354.19 563.02,354.69 562.67,354.34 C562.33,354.00 561.76,354.46 561.41,355.38 C561.22,355.88 561.48,356.68 562.26,357.87 C562.33,358.46 563.08,359.52 564.50,361.00 C565.08,361.60 565.58,362.09 566.02,362.48 C566.45,362.95 566.92,363.46 567.42,363.99 C542.21,338.45 509.32,326.94 472.87,330.97 C466.62,331.66 458.47,333.02 454.76,334.00 C449.18,335.46 448.00,335.53 448.00,334.39 C448.00,333.62 448.48,333.00 449.07,333.00 C449.65,333.00 451.57,331.92 453.32,330.61 C455.07,329.29 457.96,327.91 459.75,327.53 C461.54,327.15 463.61,325.97 464.36,324.90 C465.11,323.83 467.69,322.38 470.10,321.69 C474.10,320.53 475.79,318.85 477.32,314.50 C477.89,312.89 481.00,316.02 481.00,318.21 C481.00,319.33 481.53,319.99 482.25,319.75 C482.93,319.52 483.49,318.70 483.50,317.92 C483.50,317.14 484.80,313.84 486.40,310.60 C489.68,303.91 489.30,302.16 484.15,300.45 C481.88,299.69 481.31,299.09 482.09,298.31 C484.03,296.37 480.87,295.49 472.65,295.69 C467.14,295.82 464.28,296.34 463.07,297.44 C462.00,298.40 459.48,299.00 456.47,299.00 C449.51,299.00 451.91,297.31 461.56,295.42 C470.24,293.71 499.89,291.92 501.50,293.00 C502.05,293.37 506.27,294.23 510.87,294.91 C522.30,296.59 541.13,303.60 552.50,310.41 C559.87,314.82 569.29,322.22 577.70,329.84 C574.10,328.04 573.00,329.91 573.00,337.55 C573.00,341.58 573.45,345.16 574.01,345.50 C574.56,345.85 574.82,347.22 574.58,348.55 C574.34,349.88 574.57,351.23 575.10,351.56 ZM 567.48 540.49 C563.09,542.44 557.69,544.53 553.50,545.78 C552.45,546.09 551.33,546.39 550.17,546.67 C552.17,545.67 554.01,544.05 554.27,543.07 C554.54,542.05 556.01,541.02 557.62,540.71 C571.15,538.13 585.16,531.13 595.01,522.25 C594.69,522.55 594.38,522.85 594.07,523.13 C590.65,526.13 587.07,528.62 582.88,531.07 C579.15,533.25 575.79,535.53 575.42,536.13 L 575.42 536.13 C574.94,536.91 571.66,538.64 567.48,540.49 ZM 325.97 443.68 C325.95,445.23 325.28,447.37 324.47,448.44 C323.13,450.21 323.00,449.84 323.00,444.12 C323.00,438.55 323.17,438.02 324.50,439.36 C325.33,440.18 325.99,442.13 325.97,443.68 ZM 433.88 535.31 C432.63,533.83 430.73,530.49 429.41,527.37 C427.92,523.87 426.17,521.00 425.52,521.00 L 425.52 521.00 C424.22,520.99 421.24,514.68 418.94,507.23 C418.81,506.80 418.68,506.37 418.55,505.93 C418.30,505.08 417.99,504.16 417.63,503.22 C416.26,498.87 414.94,494.14 413.85,489.50 C413.22,486.85 412.86,482.57 412.74,477.73 C412.88,482.41 413.27,486.61 413.91,489.50 C416.58,501.49 421.68,515.31 423.11,514.43 C423.61,514.12 424.30,514.69 424.65,515.69 C427.12,522.77 431.87,532.76 433.94,535.36 C433.92,535.34 433.90,535.32 433.88,535.31 ZM 595.90 349.13 C593.66,346.26 588.39,340.38 584.11,335.89 C589.08,340.77 593.29,345.44 595.90,349.13 ZM 597.17 351.07 C597.72,351.97 598.29,352.84 598.79,353.54 C597.80,352.45 597.00,351.24 597.00,350.81 C597.00,350.80 597.00,350.79 597.00,350.78 C597.06,350.87 597.12,350.97 597.17,351.07 ZM 613.51 499.36 C613.38,499.54 613.26,499.73 613.13,499.92 C612.96,500.17 612.79,500.42 612.62,500.67 C615.31,496.49 617.70,492.22 619.79,487.87 C617.93,491.78 615.84,495.61 613.51,499.36 ZM 602.51 358.99 C603.50,360.92 605.82,364.78 607.68,367.57 C605.82,364.78 603.51,360.96 602.55,359.09 C601.87,357.79 600.87,356.21 599.98,354.99 L 599.99 355.00 C600.39,355.27 601.53,357.07 602.51,358.99 ZM 629.36 421.59 C629.45,422.24 629.53,422.89 629.61,423.55 C629.27,420.89 628.85,418.20 628.35,415.50 C628.02,413.74 627.68,412.03 627.31,410.35 C628.16,414.13 628.84,417.87 629.36,421.59 ZM 413.87 455.07 C414.06,453.76 414.27,452.56 414.51,451.50 C415.70,446.11 418.38,438.66 421.76,430.81 C418.38,438.66 415.71,446.12 414.52,451.50 C414.28,452.58 414.06,453.78 413.87,455.07 ZM 624.72 400.55 C624.92,401.17 625.11,401.80 625.30,402.42 C625.52,403.18 625.73,403.95 625.93,404.72 C625.55,403.32 625.15,401.94 624.72,400.55 ZM 603.57 513.02 C602.89,513.85 602.22,514.65 601.55,515.43 C601.41,515.58 601.27,515.74 601.13,515.90 C601.96,514.94 602.77,513.99 603.57,513.02 ZM 630.40 431.87 L 630.41 432.09 C630.44,432.49 630.46,432.88 630.48,433.28 C630.45,432.81 630.43,432.34 630.40,431.87 Z" fill="rgb(168,87,36)"/>
<path d="M 595.90 349.13 C593.29,345.44 589.08,340.77 584.11,335.89 C581.18,332.81 578.72,330.38 577.98,329.99 C577.89,329.94 577.79,329.89 577.70,329.84 C569.29,322.22 559.87,314.82 552.50,310.41 C550.27,309.08 547.76,307.74 545.08,306.43 C550.33,308.91 551.90,307.90 547.58,304.66 C545.01,302.73 544.89,299.04 547.31,296.13 C547.96,295.34 548.36,294.65 548.19,294.60 C547.35,294.34 549.64,290.31 551.45,288.83 L 553.50 287.17 L 551.31 284.83 C550.10,283.54 546.50,280.92 543.31,279.01 C540.11,277.09 536.65,274.75 535.62,273.82 C534.59,272.88 529.86,271.09 525.12,269.84 L 516.50 267.57 L 419.77 267.26 L 323.05 266.94 L 322.74 284.97 L 322.43 303.00 L 322.47 284.75 L 322.50 266.50 L 691.50 266.50 L 691.50 410.45 C691.48,406.70 691.46,402.96 691.44,399.25 L 690.75 267.00 L 654.42 267.00 C634.44,267.00 617.06,267.41 615.80,267.92 C614.53,268.42 611.27,269.40 608.55,270.10 C603.81,271.32 603.72,271.41 606.30,272.27 C607.79,272.76 609.00,273.58 609.00,274.08 C609.00,274.59 609.70,275.00 610.56,275.00 C611.42,275.00 611.84,275.45 611.50,276.00 C611.16,276.55 611.58,277.00 612.44,277.00 C613.30,277.00 614.00,277.45 614.00,278.00 C614.00,278.62 619.33,279.00 628.00,279.00 L 642.00 279.00 L 642.00 350.00 L 642.00 314.75 L 642.00 313.27 L 642.00 279.50 L 600.75 279.78 C578.06,279.93 557.73,280.15 555.56,280.28 L 551.62 280.50 L 559.56 283.95 C579.50,292.60 597.85,305.07 613.47,320.01 C612.66,319.63 610.12,317.70 607.45,315.41 C604.26,312.69 601.70,311.34 600.63,311.61 L 602.75 313.40 C603.99,314.45 605.00,315.47 605.00,315.65 C605.00,316.46 604.20,315.86 602.40,313.75 L 600.60 311.62 C600.06,311.78 599.94,312.39 600.35,313.48 C600.62,314.18 600.39,315.21 599.84,315.76 C599.19,316.41 599.17,317.96 599.78,320.18 C600.95,324.40 599.36,329.84 596.50,331.40 C590.99,334.42 591.73,337.47 602.21,355.05 C605.25,360.16 607.99,364.89 610.42,369.26 C609.66,368.04 609.01,367.09 608.49,366.50 C605.88,363.54 605.89,363.57 608.85,369.00 C612.87,376.35 616.29,385.04 618.93,394.18 C617.68,389.99 616.22,385.79 614.57,381.58 C613.88,379.83 613.04,377.90 612.16,376.02 C610.63,372.62 609.09,369.70 607.68,367.57 C605.82,364.78 603.50,360.92 602.51,358.99 C601.53,357.07 600.39,355.27 599.99,355.00 L 599.98 354.99 C599.58,354.46 599.21,354.00 598.89,353.66 C598.86,353.62 598.82,353.58 598.79,353.54 C598.29,352.84 597.72,351.97 597.17,351.07 C597.12,350.97 597.06,350.87 597.00,350.78 C596.95,350.56 596.56,349.97 595.90,349.13 ZM 352.35 441.00 C351.87,443.25 351.47,445.95 351.17,448.96 C350.92,450.87 350.72,452.80 350.56,454.76 C350.54,447.89 350.48,443.20 350.40,443.28 C350.29,443.40 349.05,448.67 347.64,455.00 C343.79,472.33 342.85,485.39 342.93,520.19 L 343.00 551.89 L 338.75 552.19 C336.50,552.36 335.44,552.44 334.95,553.06 C335.41,552.46 336.34,552.35 338.25,552.19 L 342.00 551.88 L 342.00 532.94 C342.00,522.52 341.60,514.00 341.11,514.00 C340.62,514.00 339.61,511.94 338.87,509.43 C337.77,505.70 337.01,504.75 334.76,504.30 C333.24,504.00 332.00,503.20 332.00,502.53 C332.00,500.66 328.25,497.69 326.66,498.30 C324.15,499.26 323.24,507.34 322.65,544.11 C322.58,543.53 322.51,543.18 322.44,543.11 C322.32,542.99 322.22,547.59 322.14,555.16 L 322.21 515.75 C322.31,458.44 322.59,417.62 322.86,417.62 C322.90,417.62 322.93,418.16 322.96,419.29 C323.32,432.49 323.66,437.55 324.43,439.29 C323.16,438.04 323.00,438.64 323.00,444.12 C323.00,449.84 323.13,450.21 324.47,448.44 C325.28,447.37 325.95,445.23 325.97,443.68 C325.98,442.44 325.57,440.96 324.98,439.99 C326.15,440.68 327.16,438.61 330.26,429.19 L 334.09 417.50 L 334.50 313.50 L 387.50 312.50 L 388.73 301.50 L 388.50 313.50 L 335.00 314.03 L 335.00 409.48 L 343.45 392.49 C348.10,383.15 352.87,374.38 354.04,373.00 C356.43,370.20 356.02,371.09 351.28,378.94 C349.48,381.93 348.00,385.14 348.00,386.07 C348.00,386.99 346.88,390.29 345.50,393.40 C342.99,399.09 342.19,405.00 343.94,405.00 C344.46,405.00 345.16,404.55 345.50,404.00 C346.57,402.27 347.97,402.90 349.84,405.98 C351.23,408.26 351.92,408.68 352.82,407.78 C353.47,407.13 354.01,405.90 354.03,405.05 C354.09,402.25 356.83,399.78 360.19,399.50 C362.01,399.34 363.84,399.17 364.25,399.11 C364.66,399.05 365.00,398.38 365.00,397.62 C365.00,396.86 366.38,395.67 368.08,394.97 C369.77,394.27 371.88,392.59 372.76,391.25 C373.64,389.90 375.07,388.51 375.93,388.15 C376.64,387.86 379.12,385.58 382.07,382.66 C378.01,387.15 375.32,391.14 370.92,398.40 C369.03,401.51 366.72,405.20 365.25,407.46 C365.20,407.50 365.15,407.55 365.10,407.60 C364.57,408.08 363.65,409.74 362.55,412.04 L 362.55 412.04 C361.30,414.57 359.88,417.91 358.48,421.53 C356.56,426.40 354.78,431.46 353.93,434.78 C353.84,435.14 353.75,435.49 353.66,435.85 C353.13,437.71 352.69,439.45 352.35,441.00 ZM 413.82 355.61 C418.99,352.35 424.59,349.45 430.45,346.96 C416.36,353.11 403.37,361.93 391.10,373.60 C390.00,374.64 388.99,375.61 388.05,376.53 C391.82,372.54 395.00,368.93 395.00,368.37 C395.00,366.84 400.72,361.71 401.73,362.33 C402.22,362.63 403.94,361.75 405.56,360.37 C407.18,358.99 407.83,358.18 407.00,358.58 C406.17,358.98 404.71,359.98 403.75,360.81 C402.79,361.63 402.00,362.07 402.00,361.78 C402.00,361.48 404.14,359.52 406.75,357.42 C409.36,355.32 410.64,354.59 409.60,355.80 C407.08,358.71 409.06,358.62 413.82,355.61 ZM 546.00 542.07 C548.97,541.24 551.75,540.40 554.37,539.50 C554.14,539.71 554.00,539.93 554.00,540.13 C554.00,540.86 555.18,541.06 557.11,540.84 C555.71,541.24 554.51,542.16 554.27,543.07 C554.24,543.20 554.17,543.34 554.09,543.50 C554.41,541.83 550.48,541.23 544.00,542.76 C543.03,542.99 541.80,543.16 540.44,543.29 C542.28,542.98 544.28,542.55 546.00,542.07 ZM 351.47 486.90 C351.29,487.27 351.32,487.73 351.44,488.30 C351.62,489.20 351.80,490.07 351.97,490.90 C352.24,492.72 352.54,494.42 352.87,495.96 C353.76,500.08 354.81,504.13 356.03,508.12 L 356.03 508.12 C356.12,508.43 356.22,508.73 356.31,509.04 C354.96,504.76 353.81,500.41 352.83,495.96 C351.54,490.05 350.96,486.26 350.72,479.29 C350.85,480.93 351.01,482.55 351.19,484.16 C351.28,485.09 351.37,486.00 351.47,486.90 ZM 566.65 538.37 C570.10,537.17 573.85,535.63 577.33,533.89 C581.75,531.69 585.47,529.55 588.84,527.19 C582.25,531.89 574.54,535.79 566.65,538.37 ZM 660.05 394.65 C660.70,396.93 661.29,399.21 661.82,401.50 C662.87,406.06 663.75,411.14 664.42,416.30 C663.42,408.95 661.93,401.52 660.05,394.65 ZM 626.15 333.39 C629.27,337.03 632.24,340.78 635.05,344.61 C632.45,341.13 629.27,337.14 626.15,333.39 ZM 503.79 338.48 C497.90,337.28 491.95,336.54 486.09,336.31 C490.10,336.45 494.04,336.80 497.85,337.39 C499.82,337.69 501.81,338.06 503.79,338.48 ZM 624.57 426.44 C624.83,430.79 624.84,435.01 624.60,439.00 C624.58,439.38 624.55,439.77 624.53,440.15 C624.58,439.22 624.62,438.29 624.65,437.36 L 624.65 437.35 C624.78,433.73 624.76,430.09 624.57,426.44 ZM 641.92 354.73 C644.34,358.57 646.60,362.48 648.67,366.46 C648.65,366.43 648.62,366.41 648.60,366.39 C646.50,362.41 644.25,358.46 641.92,354.73 ZM 477.95 336.32 C477.62,336.33 477.30,336.35 476.97,336.36 C471.84,336.64 466.84,337.15 461.98,337.91 C467.33,337.04 472.68,336.51 477.95,336.32 ZM 591.12 516.08 C595.78,511.44 599.98,506.46 603.70,501.18 C604.17,500.53 604.63,499.87 605.08,499.21 C601.04,505.22 596.38,510.84 591.12,516.08 ZM 558.61 537.97 C559.38,537.67 560.13,537.38 560.87,537.07 C560.93,537.11 561.06,537.10 561.25,537.07 C560.35,537.42 559.46,537.72 558.61,537.97 ZM 630.03 451.20 C629.96,451.86 629.88,452.53 629.80,453.19 C630.57,446.68 630.80,440.04 630.48,433.28 C630.78,439.35 630.63,445.33 630.03,451.20 ZM 649.30 367.67 C650.33,369.68 651.32,371.71 652.25,373.74 C651.33,371.77 650.34,369.77 649.31,367.77 C649.31,367.74 649.31,367.70 649.30,367.67 ZM 621.29 484.59 L 621.29 484.59 C620.99,485.28 620.68,485.96 620.36,486.65 C620.69,485.94 621.01,485.23 621.32,484.51 Z" fill="rgb(173,160,89)"/>
<path d="M 448.17 369.87 C446.56,368.87 445.97,368.71 439.66,372.40 C440.32,371.97 440.79,371.65 441.00,371.48 C443.54,369.42 455.43,365.10 463.15,363.42 C477.91,360.21 500.77,361.55 515.24,366.46 C517.80,367.33 523.06,368.44 526.94,368.93 C532.20,369.59 534.76,370.46 537.04,372.38 C538.72,373.79 541.98,375.46 544.30,376.08 C546.61,376.70 549.78,377.87 551.35,378.68 C552.91,379.49 555.13,380.33 556.28,380.55 C557.42,380.77 559.74,382.24 561.43,383.82 C563.12,385.39 565.94,387.67 567.70,388.88 C569.49,390.10 570.69,391.66 570.40,392.39 C570.13,393.11 571.05,394.46 572.45,395.38 C573.85,396.29 575.00,397.60 575.00,398.27 C575.00,398.95 576.70,401.98 578.78,405.00 C580.86,408.02 583.17,412.98 583.92,416.00 C584.67,419.02 586.35,422.77 587.64,424.33 C588.94,425.88 590.00,427.79 590.00,428.58 C590.00,429.36 590.47,430.00 591.05,430.00 C591.34,430.00 591.54,429.77 591.62,429.31 C591.74,430.17 591.85,431.01 591.93,431.85 C592.45,436.88 593.08,441.33 593.33,441.75 C594.04,442.95 591.32,459.51 589.46,465.25 C584.60,480.20 575.44,492.33 562.18,501.35 C553.72,507.10 551.00,508.13 551.00,505.57 C551.00,503.97 553.65,501.00 555.07,501.00 C555.58,501.00 556.00,500.33 556.00,499.50 C556.00,498.68 557.51,496.32 559.36,494.25 C562.57,490.66 563.80,488.44 567.55,479.50 C570.71,471.97 572.12,466.50 572.97,458.50 C577.20,418.40 548.31,376.43 509.14,365.79 C502.70,364.03 498.52,363.70 482.50,363.66 C463.90,363.61 463.38,363.67 457.81,366.31 C454.68,367.79 451.65,369.00 451.06,369.00 C450.48,369.00 450.00,369.45 450.00,370.01 C450.00,370.64 449.31,370.59 448.17,369.87 ZM 478.04 535.61 C475.88,534.36 473.59,532.99 471.14,531.50 C470.24,530.95 467.39,529.04 464.82,527.25 C462.25,525.46 459.83,524.00 459.45,524.00 C459.07,524.00 457.23,522.65 455.35,521.00 C453.47,519.35 451.36,518.00 450.65,518.00 C449.95,518.00 448.38,516.65 447.16,515.00 C445.94,513.35 444.27,512.00 443.45,512.00 C442.63,512.00 439.75,508.51 437.06,504.25 C434.37,499.99 430.52,493.92 428.52,490.77 C426.52,487.62 424.62,483.46 424.31,481.52 C424.00,479.59 423.35,478.00 422.87,478.00 C422.39,478.00 422.00,476.80 422.00,475.33 C422.00,472.24 420.78,472.94 420.39,476.26 C419.59,483.24 419.19,487.45 419.18,489.97 C418.79,488.15 418.38,485.89 418.03,483.65 C416.07,470.78 418.34,453.81 423.56,442.35 C424.35,440.62 425.00,438.87 425.00,438.48 C425.00,436.49 433.06,424.90 438.42,419.19 C448.13,408.85 456.91,402.91 464.50,401.55 C468.49,400.84 468.49,400.85 466.50,402.81 C465.40,403.89 462.92,406.91 461.00,409.53 C459.08,412.15 456.04,415.72 454.25,417.46 C452.46,419.21 451.00,421.07 451.00,421.59 C451.00,422.10 450.03,424.32 448.84,426.51 C442.67,437.91 438.01,454.76 438.00,465.68 C437.99,490.48 449.13,513.56 468.58,529.05 C471.53,531.41 474.70,533.60 478.04,535.61 ZM 438.93 407.69 C431.74,414.55 426.02,422.28 421.71,430.92 L 421.76 430.81 C422.02,430.21 422.29,429.60 422.55,428.99 C427.03,418.86 432.58,408.30 437.60,400.85 C443.50,392.08 454.40,381.21 460.51,377.99 C463.64,376.35 465.90,375.00 465.53,375.00 C465.16,375.00 465.56,374.29 466.43,373.43 C468.44,371.41 468.42,370.37 466.33,369.57 C463.04,368.31 455.24,370.62 446.52,375.01 C452.00,372.19 457.60,370.03 463.16,368.65 C466.83,367.74 471.02,367.00 472.47,367.00 C474.17,367.00 474.87,366.60 474.42,365.88 C473.28,364.03 488.24,365.75 498.44,368.64 C508.04,371.36 518.16,376.03 526.65,381.65 C532.60,385.59 540.00,393.25 540.00,395.48 C540.00,397.30 539.53,397.36 536.72,395.85 C535.53,395.22 532.90,394.56 530.87,394.38 C526.23,393.99 524.68,393.65 513.00,390.41 C504.95,388.18 501.36,387.76 489.50,387.69 C476.97,387.60 474.69,387.86 467.83,390.16 C456.56,393.94 447.68,399.33 438.93,407.69 ZM 570.92 506.99 C564.17,513.58 556.94,519.92 554.22,521.21 C551.87,522.33 549.39,523.98 548.72,524.87 C546.78,527.46 530.89,536.68 525.83,538.16 C523.29,538.90 521.28,539.95 521.36,540.50 C521.44,541.05 521.84,541.39 522.25,541.25 C522.66,541.11 523.00,541.42 523.00,541.94 C523.00,542.86 527.46,543.52 535.20,543.76 C525.87,544.11 513.39,543.05 506.00,540.98 C493.10,537.36 474.18,525.95 470.89,519.80 C469.45,517.10 470.29,516.61 474.18,517.89 C476.01,518.50 480.20,519.16 483.50,519.36 C486.80,519.57 491.08,520.40 493.00,521.21 C498.13,523.37 517.90,525.39 526.65,524.65 C541.00,523.43 552.28,519.38 563.68,511.35 C567.08,508.96 570.30,507.00 570.84,507.00 C570.86,507.00 570.89,507.00 570.92,506.99 ZM 507.56 547.27 C499.38,545.98 492.45,543.44 483.55,538.68 C491.20,542.63 499.44,545.59 507.56,547.27 ZM 392.15 441.17 C389.88,449.38 388.68,458.04 388.31,468.00 C388.73,456.83 389.70,449.44 392.15,441.17 ZM 591.71 478.42 C589.56,483.44 586.92,488.25 583.80,492.86 C583.13,493.85 582.13,495.11 580.90,496.54 C585.32,490.84 588.92,484.81 591.71,478.42 ZM 423.67 503.26 C425.98,508.93 430.11,516.84 433.85,522.81 C433.87,522.84 433.88,522.88 433.90,522.92 C429.96,516.75 425.87,508.92 423.67,503.26 ZM 409.56 406.54 C413.11,401.87 417.04,397.45 421.25,393.37 C417.17,397.49 413.05,402.12 409.61,406.48 ZM 589.27 418.07 C588.73,416.30 588.11,414.33 587.39,412.16 C586.31,408.85 585.06,405.58 583.67,402.40 C585.93,407.53 587.83,412.83 589.27,418.07 ZM 396.81 413.24 C397.58,411.87 398.39,410.51 399.22,409.16 C400.59,406.94 402.29,404.54 404.18,402.11 C401.51,405.64 399.05,409.36 396.81,413.24 ZM 545.72 542.39 C549.51,541.67 552.22,541.75 553.42,542.38 C552.16,541.81 549.45,541.73 545.72,542.39 ZM 538.64 543.55 C539.21,543.48 539.82,543.39 540.44,543.29 C541.26,543.21 542.04,543.12 542.74,543.00 C541.54,543.24 540.16,543.42 538.64,543.55 ZM 551.37 545.99 C550.99,546.23 550.58,546.47 550.17,546.67 C549.99,546.71 549.81,546.76 549.63,546.80 C549.88,546.71 550.12,546.62 550.32,546.52 C550.70,546.34 551.05,546.16 551.37,545.99 ZM 413.87 455.07 C414.06,453.78 414.28,452.58 414.52,451.50 C414.60,451.14 414.68,450.77 414.77,450.40 C414.69,450.76 414.60,451.13 414.52,451.50 C414.24,452.79 413.98,454.25 413.76,455.83 C413.80,455.57 413.83,455.32 413.87,455.07 ZM 542.11 548.21 C541.93,548.22 541.75,548.23 541.57,548.24 C541.96,548.20 542.34,548.16 542.71,548.12 C542.51,548.15 542.31,548.18 542.11,548.21 Z" fill="rgb(213,60,38)"/>
<path d="M 495.50 514.00 C497.46,517.17 483.49,511.46 478.36,507.00 C475.60,504.60 468.17,495.20 464.92,490.00 C457.82,478.65 456.46,456.43 462.05,443.39 C467.28,431.18 478.59,421.32 489.93,419.09 C498.49,417.41 498.09,416.18 488.50,414.64 C481.08,413.44 468.77,418.63 460.68,426.35 C456.81,430.05 455.00,430.87 455.00,428.93 C455.00,426.78 467.26,416.28 474.04,412.62 C483.20,407.67 491.36,406.42 501.15,408.46 C509.49,410.20 520.75,415.18 526.86,419.83 C530.02,422.24 531.54,422.86 532.33,422.07 C533.65,420.75 529.18,411.85 524.25,406.02 C522.46,403.91 521.00,401.90 521.00,401.56 C521.00,400.85 525.23,402.92 526.00,404.00 C526.28,404.39 528.33,405.85 530.57,407.25 C537.69,411.71 547.18,424.64 550.39,434.27 C556.93,453.83 552.81,473.20 539.40,486.01 C533.62,491.53 532.88,493.00 535.92,493.00 C539.99,493.00 547.12,488.88 552.72,483.28 C559.30,476.70 563.46,468.97 566.05,458.50 C568.24,449.64 569.71,452.02 568.06,461.74 C565.25,478.22 552.00,495.94 538.34,501.49 C529.46,505.11 514.72,506.07 505.28,503.65 C495.65,501.18 485.91,495.81 480.90,490.20 C474.55,483.09 468.98,472.17 468.29,465.50 C467.98,462.47 467.39,460.00 466.98,460.00 C463.88,460.00 466.54,481.48 470.59,489.17 C473.50,494.69 491.16,513.00 493.57,513.00 C494.29,513.00 495.16,513.45 495.50,514.00 ZM 322.44 302.32 L 323.05 266.94 L 419.77 267.26 L 516.50 267.57 L 525.12 269.84 C529.86,271.09 534.59,272.88 535.62,273.82 C536.65,274.75 540.11,277.09 543.31,279.01 C546.50,280.92 550.10,283.54 551.31,284.83 L 553.50 287.17 L 551.45 288.83 C549.64,290.31 547.35,294.34 548.19,294.60 C548.36,294.65 547.96,295.34 547.31,296.13 C544.89,299.04 545.01,302.73 547.58,304.66 C551.90,307.90 550.33,308.91 545.08,306.43 C534.04,301.06 520.06,296.26 510.87,294.91 C506.27,294.23 502.05,293.37 501.50,293.00 C501.10,292.73 498.97,292.64 495.86,292.68 C497.34,292.54 498.28,292.35 498.41,292.15 C500.10,289.40 473.44,287.00 441.25,287.00 L 416.00 287.00 L 416.00 283.61 C416.00,279.36 415.09,279.00 404.47,279.00 L 396.11 279.00 L 395.80 283.75 L 395.50 288.50 L 373.57 288.77 C359.63,288.94 351.27,288.67 350.62,288.02 C348.62,286.02 348.23,287.10 348.36,294.25 L 348.50 301.50 L 368.80 301.77 L 388.67 302.04 L 387.50 312.50 L 334.50 313.50 L 334.09 417.50 L 330.26 429.19 C327.16,438.61 326.15,440.68 324.98,439.99 C324.83,439.74 324.67,439.53 324.50,439.36 C324.48,439.34 324.46,439.31 324.43,439.29 C323.66,437.55 323.32,432.49 322.96,419.29 C322.93,418.16 322.90,417.62 322.86,417.62 C322.59,417.62 322.31,458.44 322.21,515.75 L 322.14 555.16 L 322.14 555.16 C322.05,563.22 322.00,574.66 322.00,587.34 L 322.00 601.41 L 321.95 606.20 L 322.20 449.25 ZM 408.92 356.66 C409.09,356.41 409.32,356.12 409.60,355.80 C410.64,354.59 409.36,355.32 406.75,357.42 C404.14,359.52 402.00,361.48 402.00,361.78 C402.00,362.07 402.79,361.63 403.75,360.81 C404.31,360.33 405.03,359.79 405.70,359.35 C403.80,361.07 402.84,361.95 402.57,362.27 C402.19,362.40 401.89,362.43 401.73,362.33 C400.72,361.71 395.00,366.84 395.00,368.37 C395.00,368.93 391.82,372.54 388.05,376.53 C385.67,378.84 383.75,380.79 382.07,382.66 C379.12,385.58 376.64,387.86 375.93,388.15 C375.07,388.51 373.64,389.90 372.76,391.25 C371.88,392.59 369.77,394.27 368.08,394.97 C366.38,395.67 365.00,396.86 365.00,397.62 C365.00,398.38 364.66,399.05 364.25,399.11 C363.84,399.17 362.01,399.34 360.19,399.50 C356.83,399.78 354.09,402.25 354.03,405.05 C354.01,405.90 353.47,407.13 352.82,407.78 C351.92,408.68 351.23,408.26 349.84,405.98 C347.97,402.90 346.57,402.27 345.50,404.00 C345.16,404.55 344.46,405.00 343.94,405.00 C342.19,405.00 342.99,399.09 345.50,393.40 C346.88,390.29 348.00,386.99 348.00,386.07 C348.00,385.14 349.48,381.93 351.28,378.94 C355.77,371.49 356.38,370.31 354.38,372.60 C354.70,372.14 354.98,371.77 355.21,371.50 C357.08,369.30 359.68,365.92 360.99,364.00 C363.72,359.98 375.08,345.95 379.20,341.50 L 381.98 338.50 L 366.12 338.23 L 350.25 337.95 L 349.72 334.69 C349.43,332.90 349.43,330.21 349.71,328.71 L 350.23 326.00 L 373.87 326.00 L 397.50 326.00 L 405.29 320.16 C412.38,314.85 424.25,307.60 419.50,311.49 C417.52,313.10 417.52,313.14 419.44,314.56 C420.51,315.35 421.72,316.00 422.13,316.00 C423.62,316.00 424.15,313.88 423.01,312.51 C422.10,311.41 422.28,310.74 423.84,309.41 C425.74,307.77 440.15,301.18 438.75,302.58 C438.38,302.96 438.56,304.19 439.17,305.31 C440.06,306.98 439.90,307.66 438.32,308.95 C433.16,313.12 433.73,318.51 439.17,316.95 C441.79,316.20 441.96,316.32 441.42,318.48 C441.09,319.76 441.33,321.76 441.95,322.91 C443.19,325.22 442.14,325.70 440.08,323.75 C438.99,322.72 438.94,322.87 439.82,324.57 C440.77,326.44 440.30,326.99 435.19,330.00 C427.20,334.71 426.74,335.44 429.15,339.53 L 431.14 342.90 L 426.26 345.37 C421.10,347.98 414.07,352.60 408.92,356.66 ZM 429.69 318.36 C430.89,319.56 433.00,319.01 433.00,317.50 C433.00,316.67 432.35,316.00 431.56,316.00 C429.89,316.00 428.76,317.43 429.69,318.36 ZM 567.76 569.68 C566.76,570.06 565.75,570.42 564.74,570.77 C567.78,569.68 570.86,568.46 574.01,567.10 C579.68,564.66 587.72,560.14 593.89,556.23 C592.73,557.01 591.49,557.82 590.20,558.64 C588.53,559.70 586.81,560.72 585.05,561.71 C580.87,563.99 576.27,566.24 571.95,568.03 C570.55,568.60 569.15,569.16 567.76,569.68 ZM 388.72 302.04 L 389.10 302.04 L 388.80 307.77 L 388.50 313.50 ZM 487.00 293.00 C480.44,293.35 472.93,293.93 467.37,294.58 C473.87,293.71 481.35,293.06 487.00,293.00 ZM 462.50 337.82 C462.32,337.85 462.15,337.88 461.98,337.91 C452.74,339.34 443.97,341.65 435.59,344.86 C436.80,344.37 437.94,343.92 439.00,343.54 C446.09,340.98 454.20,339.04 462.50,337.82 ZM 459.22 298.82 C460.97,298.57 462.35,298.09 463.07,297.44 C464.16,296.45 466.59,295.93 471.07,295.74 C467.38,296.01 463.96,296.63 463.00,297.50 C462.14,298.28 460.97,298.70 459.22,298.82 ZM 348.74 382.20 C347.11,385.27 345.27,388.84 343.45,392.49 L 335.00 409.48 L 343.40 392.49 C345.16,388.94 347.01,385.38 348.74,382.20 ZM 473.12 565.74 C466.83,562.74 460.91,559.20 455.38,555.11 C450.91,551.81 446.70,548.15 442.76,544.15 C451.52,553.04 461.85,560.33 473.29,565.82 C473.24,565.79 473.18,565.77 473.12,565.74 ZM 413.82 355.61 C412.32,356.56 411.09,357.22 410.19,357.59 C411.90,356.57 413.74,355.53 415.63,354.50 C415.02,354.86 414.42,355.23 413.82,355.61 ZM 481.87 298.59 C481.47,299.24 482.16,299.78 484.15,300.45 C487.16,301.45 488.54,302.47 488.51,304.48 C488.54,302.45 487.12,301.44 484.00,300.40 C481.90,299.70 481.17,299.08 481.87,298.59 ZM 481.37 296.25 C482.31,296.55 482.73,296.96 482.63,297.47 C482.56,297.23 482.36,296.96 482.03,296.64 C481.89,296.49 481.66,296.37 481.37,296.25 ZM 459.07 295.94 C457.02,296.39 455.42,296.83 454.31,297.22 C455.32,296.80 456.98,296.36 459.07,295.94 ZM 403.43 361.87 C403.82,361.62 404.31,361.29 404.92,360.88 C404.40,361.28 403.89,361.61 403.43,361.87 ZM 452.65 298.03 C452.56,298.10 452.51,298.17 452.49,298.24 C452.48,298.18 452.53,298.11 452.65,298.03 Z" fill="rgb(226,129,43)"/>
<path d="M 448.17 369.87 C449.31,370.59 450.00,370.64 450.00,370.01 C450.00,369.45 450.48,369.00 451.06,369.00 C451.65,369.00 454.68,367.79 457.81,366.31 C463.38,363.67 463.90,363.61 482.50,363.66 C498.52,363.70 502.70,364.03 509.14,365.79 C548.31,376.43 577.20,418.40 572.97,458.50 C572.12,466.50 570.71,471.97 567.55,479.50 C563.80,488.44 562.57,490.66 559.36,494.25 C557.51,496.32 556.00,498.68 556.00,499.50 C556.00,500.33 555.58,501.00 555.07,501.00 C553.65,501.00 551.00,503.97 551.00,505.57 C551.00,508.13 553.72,507.10 562.18,501.35 C575.44,492.33 584.60,480.20 589.46,465.25 C591.32,459.51 594.04,442.95 593.33,441.75 C593.16,441.47 592.82,439.34 592.45,436.43 C592.54,437.04 592.62,437.58 592.69,438.00 L 593.28 441.50 L 594.21 438.08 C595.50,433.36 593.52,412.82 591.09,405.77 C590.03,402.69 589.38,399.96 589.63,399.70 C590.05,399.28 587.82,394.07 585.10,388.60 C586.09,390.53 587.13,392.64 588.27,395.00 C595.01,408.97 596.53,413.97 598.07,427.20 C600.29,446.31 598.19,463.32 591.71,478.42 C588.92,484.81 585.32,490.84 580.90,496.54 C578.30,499.54 574.69,503.30 570.92,506.99 C570.89,507.00 570.86,507.00 570.84,507.00 C570.30,507.00 567.08,508.96 563.68,511.35 C552.28,519.38 541.00,523.43 526.65,524.65 C517.90,525.39 498.13,523.37 493.00,521.21 C491.08,520.40 486.80,519.57 483.50,519.36 C480.20,519.16 476.01,518.50 474.18,517.89 C470.29,516.61 469.45,517.10 470.89,519.80 C474.18,525.95 493.10,537.36 506.00,540.98 C513.39,543.05 525.87,544.11 535.20,543.76 C535.30,543.76 535.40,543.76 535.50,543.77 C536.28,543.79 537.38,543.71 538.64,543.55 C540.16,543.42 541.54,543.24 542.74,543.00 C543.19,542.93 543.62,542.85 544.00,542.76 C544.60,542.62 545.17,542.50 545.72,542.39 C549.45,541.73 552.16,541.81 553.42,542.38 C553.94,542.66 554.18,543.04 554.09,543.50 C553.65,544.24 552.61,545.19 551.37,545.99 C551.05,546.16 550.70,546.34 550.32,546.52 C550.12,546.62 549.88,546.71 549.63,546.80 C547.48,547.30 545.16,547.74 542.71,548.12 C542.34,548.16 541.96,548.20 541.57,548.24 C538.39,548.43 534.22,548.47 528.00,548.47 C519.79,548.47 513.36,548.19 507.56,547.27 C499.44,545.59 491.20,542.63 483.55,538.68 C481.80,537.74 479.97,536.72 478.04,535.61 C474.70,533.60 471.53,531.41 468.58,529.05 C449.13,513.56 437.99,490.48 438.00,465.68 C438.01,454.76 442.67,437.91 448.84,426.51 C450.03,424.32 451.00,422.10 451.00,421.59 C451.00,421.07 452.46,419.21 454.25,417.46 C456.04,415.72 459.08,412.15 461.00,409.53 C462.92,406.91 465.40,403.89 466.50,402.81 C468.49,400.85 468.49,400.84 464.50,401.55 C456.91,402.91 448.13,408.85 438.42,419.19 C433.06,424.90 425.00,436.49 425.00,438.48 C425.00,438.87 424.35,440.62 423.56,442.35 C418.34,453.81 416.07,470.78 418.03,483.65 C418.38,485.89 418.79,488.15 419.18,489.97 C419.17,491.82 419.36,492.76 419.73,493.23 C420.06,493.64 420.62,494.87 421.22,496.43 C419.85,493.18 418.89,493.07 419.61,497.25 C421.69,509.21 429.75,530.12 434.34,535.70 C434.20,535.58 434.07,535.46 433.94,535.36 C431.87,532.76 427.12,522.77 424.65,515.69 C424.30,514.69 423.61,514.12 423.11,514.43 C421.68,515.31 416.58,501.49 413.91,489.50 C413.27,486.61 412.88,482.41 412.74,477.73 C412.56,470.53 412.92,462.08 413.76,455.83 L 413.76 455.82 C413.98,454.25 414.24,452.79 414.52,451.50 C414.60,451.13 414.69,450.76 414.77,450.40 C416.06,445.15 418.57,438.21 421.71,430.92 C426.02,422.28 431.74,414.55 438.93,407.69 C447.68,399.33 456.56,393.94 467.83,390.16 C474.69,387.86 476.97,387.60 489.50,387.69 C501.36,387.76 504.95,388.18 513.00,390.41 C524.68,393.65 526.23,393.99 530.87,394.38 C532.90,394.56 535.53,395.22 536.72,395.85 C539.53,397.36 540.00,397.30 540.00,395.48 C540.00,393.25 532.60,385.59 526.65,381.65 C518.16,376.03 508.04,371.36 498.44,368.64 C488.24,365.75 473.28,364.03 474.42,365.88 C474.87,366.60 474.17,367.00 472.47,367.00 C471.02,367.00 466.83,367.74 463.16,368.65 C457.60,370.03 452.00,372.19 446.52,375.01 C445.46,375.54 444.39,376.10 443.32,376.69 C445.12,375.67 446.94,374.72 448.78,373.83 C456.18,370.26 455.22,368.71 447.28,371.42 C444.73,372.29 441.77,373.00 440.71,373.00 C439.76,373.00 438.19,373.58 436.23,374.57 C437.61,373.71 438.80,372.96 439.66,372.40 C445.97,368.71 446.56,368.87 448.17,369.87 ZM 495.50 514.00 C495.16,513.45 494.29,513.00 493.57,513.00 C491.16,513.00 473.50,494.69 470.59,489.17 C466.54,481.48 463.88,460.00 466.98,460.00 C467.39,460.00 467.98,462.47 468.29,465.50 C468.98,472.17 474.55,483.09 480.90,490.20 C485.91,495.81 495.65,501.18 505.28,503.65 C514.72,506.07 529.46,505.11 538.34,501.49 C552.00,495.94 565.25,478.22 568.06,461.74 C569.71,452.02 568.24,449.64 566.05,458.50 C563.46,468.97 559.30,476.70 552.72,483.28 C547.12,488.88 539.99,493.00 535.92,493.00 C532.88,493.00 533.62,491.53 539.40,486.01 C552.81,473.20 556.93,453.83 550.39,434.27 C547.18,424.64 537.69,411.71 530.57,407.25 C528.33,405.85 526.28,404.39 526.00,404.00 C525.23,402.92 521.00,400.85 521.00,401.56 C521.00,401.90 522.46,403.91 524.25,406.02 C529.18,411.85 533.65,420.75 532.33,422.07 C531.54,422.86 530.02,422.24 526.86,419.83 C520.75,415.18 509.49,410.20 501.15,408.46 C491.36,406.42 483.20,407.67 474.04,412.62 C467.26,416.28 455.00,426.78 455.00,428.93 C455.00,430.87 456.81,430.05 460.68,426.35 C468.77,418.63 481.08,413.44 488.50,414.64 C498.09,416.18 498.49,417.41 489.93,419.09 C478.59,421.32 467.28,431.18 462.05,443.39 C456.46,456.43 457.82,478.65 464.92,490.00 C468.17,495.20 475.60,504.60 478.36,507.00 C483.49,511.46 497.46,517.17 495.50,514.00 ZM 459.22 298.82 C460.97,298.70 462.14,298.28 463.00,297.50 C463.96,296.63 467.38,296.01 471.07,295.74 C471.57,295.72 472.09,295.70 472.65,295.69 C476.93,295.59 479.84,295.77 481.37,296.25 C481.66,296.37 481.89,296.49 482.03,296.64 C482.36,296.96 482.56,297.23 482.63,297.47 C482.57,297.73 482.39,298.01 482.09,298.31 C481.99,298.41 481.92,298.50 481.87,298.59 C481.17,299.08 481.90,299.70 484.00,300.40 C487.12,301.44 488.54,302.45 488.51,304.48 C488.49,305.90 487.76,307.83 486.40,310.60 C484.80,313.84 483.50,317.14 483.50,317.92 C483.49,318.70 482.93,319.52 482.25,319.75 C481.53,319.99 481.00,319.33 481.00,318.21 C481.00,316.02 477.89,312.89 477.32,314.50 C475.79,318.85 474.10,320.53 470.10,321.69 C467.69,322.38 465.11,323.83 464.36,324.90 C463.61,325.97 461.54,327.15 459.75,327.53 C457.96,327.91 455.07,329.29 453.32,330.61 C451.57,331.92 449.65,333.00 449.07,333.00 C448.48,333.00 448.00,333.62 448.00,334.39 C448.00,335.28 448.72,335.43 451.68,334.76 C443.52,336.83 436.56,339.06 435.21,340.19 C434.63,340.68 433.03,341.67 431.07,342.79 L 429.15 339.53 C426.74,335.44 427.20,334.71 435.19,330.00 C440.30,326.99 440.77,326.44 439.82,324.57 C438.94,322.87 438.99,322.72 440.08,323.75 C442.14,325.70 443.19,325.22 441.95,322.91 C441.33,321.76 441.09,319.76 441.42,318.48 C441.96,316.32 441.79,316.20 439.17,316.95 C433.73,318.51 433.16,313.12 438.32,308.95 C439.90,307.66 440.06,306.98 439.17,305.31 C438.56,304.19 438.38,302.96 438.75,302.58 C438.86,302.47 438.88,302.41 438.80,302.39 C443.69,300.53 448.64,298.89 453.47,297.55 C453.08,297.72 452.81,297.88 452.65,298.03 C452.53,298.11 452.48,298.18 452.49,298.24 C452.32,298.71 453.60,299.00 456.47,299.00 C457.45,299.00 458.38,298.94 459.22,298.82 ZM 430.49 305.81 C427.48,307.25 424.62,308.74 423.84,309.41 C422.28,310.74 422.10,311.41 423.01,312.51 C424.15,313.88 423.62,316.00 422.13,316.00 C421.72,316.00 420.51,315.35 419.44,314.56 C417.52,313.14 417.52,313.10 419.50,311.49 C419.95,311.12 420.25,310.85 420.42,310.67 C423.64,308.97 427.02,307.34 430.49,305.81 ZM 470.40 331.26 C471.25,331.16 472.08,331.06 472.87,330.97 C483.05,329.85 492.96,329.93 502.49,331.20 C493.09,330.42 480.01,330.44 470.40,331.26 ZM 429.69 318.36 C428.76,317.43 429.89,316.00 431.56,316.00 C432.35,316.00 433.00,316.67 433.00,317.50 C433.00,319.01 430.89,319.56 429.69,318.36 ZM 524.02 336.27 C533.57,339.57 542.62,344.20 551.06,350.12 C542.85,344.52 533.49,339.74 524.02,336.27 ZM 459.46 557.94 C461.26,558.97 463.94,560.57 466.00,561.85 C468.44,563.36 471.19,564.81 474.16,566.19 C473.87,566.07 473.58,565.94 473.29,565.82 C468.47,563.51 463.85,560.88 459.46,557.94 ZM 585.33 406.36 C584.80,405.03 584.25,403.71 583.67,402.40 C581.83,398.17 579.75,394.09 577.50,390.27 C578.49,391.88 579.45,393.52 580.34,395.16 C581.96,398.11 583.71,402.09 585.33,406.36 ZM 428.50 379.28 C424.28,382.18 419.71,385.74 415.88,389.23 C419.97,385.41 424.28,382.00 428.50,379.28 ZM 483.75 293.09 C478.66,293.30 472.68,293.87 467.37,294.58 C466.88,294.63 466.39,294.69 465.93,294.75 C466.45,294.66 466.98,294.58 467.50,294.50 C471.84,293.86 478.41,293.30 483.75,293.09 ZM 383.71 488.82 C382.93,484.16 382.45,479.48 382.25,474.75 C382.48,479.47 382.99,484.21 383.79,488.96 C383.77,488.91 383.74,488.86 383.71,488.82 ZM 409.56 406.54 C409.33,406.82 409.11,407.11 408.89,407.39 C412.89,402.01 417.42,396.93 422.33,392.29 C421.97,392.65 421.61,393.01 421.25,393.37 L 421.25 393.37 C417.04,397.45 413.11,401.87 409.56,406.54 ZM 384.00 490.48 C384.00,490.46 384.00,490.44 384.00,490.42 C384.00,490.33 384.00,490.23 384.00,490.14 C384.72,494.19 385.65,498.24 386.78,502.26 C385.64,498.34 384.72,494.42 384.00,490.48 ZM 427.50 344.74 C427.38,344.80 427.27,344.86 427.16,344.92 C423.09,347.03 418.86,349.58 414.99,352.21 C418.86,349.55 422.95,347.05 426.26,345.37 ZM 563.83 360.50 C565.05,361.63 566.24,362.80 567.42,363.99 C567.74,364.32 568.06,364.67 568.40,365.03 C571.09,367.84 573.29,370.28 575.23,372.71 C571.99,368.76 567.89,364.37 563.83,360.50 ZM 410.49 316.48 C408.67,317.71 406.86,318.98 405.29,320.16 L 397.50 326.00 L 405.50 319.97 C407.05,318.79 408.72,317.63 410.49,316.48 ZM 454.35 334.10 C455.52,333.80 456.47,333.58 457.55,333.36 C456.48,333.60 455.41,333.85 454.35,334.10 ZM 402.33 532.40 C403.06,533.89 403.80,535.36 404.53,536.76 C403.79,535.34 403.04,533.86 402.30,532.35 ZM 495.86 292.68 L 495.84 292.68 C497.33,292.54 498.28,292.35 498.40,292.15 C498.27,292.35 497.33,292.54 495.86,292.68 Z" fill="rgb(227,96,44)"/>
<path d="M 0.00 512.00 L 0.00 0.00 L 512.00 0.00 L 1024.00 0.00 L 1024.00 512.00 L 1024.00 1024.00 L 512.00 1024.00 L 0.00 1024.00 L 0.00 512.00 ZM 542.28 759.65 C547.22,757.59 548.60,755.48 546.98,752.47 C545.38,749.48 544.56,749.40 541.77,752.00 C539.09,754.50 533.95,754.59 531.00,752.20 L 528.78 750.40 L 532.95 748.52 C539.74,745.46 545.47,737.13 546.63,728.66 C547.98,718.86 541.45,706.94 532.50,702.87 C527.94,700.79 514.96,700.32 510.32,702.06 C501.10,705.51 495.15,713.24 494.28,722.90 C493.04,736.57 501.37,747.65 515.00,750.48 C516.92,750.88 520.08,752.71 522.00,754.54 C528.67,760.91 535.29,762.58 542.28,759.65 ZM 561.65 748.00 C562.32,746.62 563.40,744.04 564.06,742.25 L 565.24 739.00 L 577.68 739.00 L 590.11 739.00 L 592.57 744.56 L 595.03 750.11 L 599.26 749.81 C602.68,749.56 603.44,749.16 603.20,747.72 C603.03,746.74 598.36,735.83 592.81,723.47 L 582.72 701.00 L 578.11 701.01 L 573.50 701.02 L 564.31 721.26 C554.40,743.07 552.00,748.72 552.00,750.18 C552.00,750.69 553.90,750.98 556.22,750.81 C559.56,750.56 560.69,749.98 561.65,748.00 ZM 639.68 748.57 C645.61,745.81 648.00,742.23 648.00,736.13 C648.00,733.36 647.25,731.26 645.52,729.21 C642.67,725.82 640.34,724.74 630.19,722.10 C626.16,721.05 622.00,719.41 620.94,718.44 C618.40,716.15 618.48,712.78 621.11,710.40 C623.89,707.89 635.00,707.85 639.75,710.35 L 643.01 712.05 L 644.72 708.47 C646.20,705.35 646.24,704.76 644.96,703.94 C640.16,700.87 624.51,699.93 618.67,702.36 C607.86,706.88 606.80,721.23 616.90,726.45 C618.40,727.22 623.20,728.77 627.56,729.89 C636.37,732.14 639.44,734.58 638.12,738.30 C636.10,743.96 626.74,745.13 617.12,740.92 C614.72,739.86 612.43,739.00 612.03,739.00 C611.29,739.00 609.00,743.48 609.00,744.92 C609.00,745.76 616.76,749.37 620.50,750.28 C626.19,751.66 634.66,750.91 639.68,748.57 ZM 337.00 746.50 L 337.00 743.00 L 323.00 743.00 L 309.00 743.00 L 309.00 736.00 L 309.00 729.00 L 320.44 729.00 C327.40,729.00 332.14,728.59 332.54,727.94 C332.89,727.36 332.91,725.79 332.58,724.44 C331.97,722.03 331.82,722.00 320.48,722.00 L 309.00 722.00 L 309.00 715.53 L 309.00 709.06 L 322.25 708.78 L 335.50 708.50 L 335.81 704.73 L 336.12 700.95 L 317.81 701.23 L 299.50 701.50 L 299.23 725.75 L 298.96 750.00 L 317.98 750.00 L 337.00 750.00 L 337.00 746.50 ZM 357.77 725.25 L 358.04 701.00 L 353.52 701.00 L 349.00 701.00 L 349.00 725.56 L 349.00 750.11 L 353.25 749.81 L 357.50 749.50 L 357.77 725.25 ZM 411.00 746.50 L 411.00 743.00 L 396.50 743.00 L 382.00 743.00 L 382.00 736.03 L 382.00 729.06 L 393.75 728.78 L 405.50 728.50 L 405.81 725.25 L 406.13 722.00 L 394.06 722.00 L 382.00 722.00 L 382.00 715.50 L 382.00 709.00 L 395.50 709.00 L 409.00 709.00 L 409.00 705.00 L 409.00 701.00 L 391.00 701.00 L 373.00 701.00 L 373.00 725.50 L 373.00 750.00 L 392.00 750.00 L 411.00 750.00 L 411.00 746.50 ZM 461.00 746.50 L 461.00 743.00 L 446.56 743.00 C438.62,743.00 431.90,742.65 431.64,742.22 C431.37,741.79 436.57,734.93 443.19,726.97 C457.57,709.68 460.00,706.25 460.00,703.27 L 460.00 701.00 L 439.50 701.00 L 419.00 701.00 L 419.00 705.00 L 419.00 709.00 L 432.50 709.00 C439.92,709.00 446.00,709.28 446.00,709.63 C446.00,709.97 442.95,713.91 439.21,718.38 C418.50,743.16 418.00,743.83 418.00,746.94 L 418.00 750.00 L 439.50 750.00 L 461.00 750.00 L 461.00 746.50 ZM 667.00 734.50 C667.00,725.97 667.34,719.00 667.75,719.01 C668.16,719.01 671.78,724.86 675.79,732.01 C685.43,749.16 685.27,749.16 694.89,732.00 C698.89,724.85 702.58,719.00 703.08,719.00 C703.60,719.00 704.00,725.79 704.00,734.50 L 704.00 750.00 L 707.89 750.00 C710.15,750.00 711.94,749.47 712.14,748.75 C712.34,748.06 712.36,737.04 712.20,724.25 L 711.90 701.00 L 708.05 701.00 L 704.20 701.00 L 695.26 716.59 C690.35,725.17 685.91,732.17 685.41,732.15 C684.91,732.13 680.51,725.11 675.62,716.56 L 666.75 701.00 L 662.37 701.00 L 658.00 701.00 L 658.00 725.50 L 658.00 750.00 L 662.50 750.00 L 667.00 750.00 L 667.00 734.50 ZM 485.81 730.25 L 486.13 727.00 L 476.56 727.00 L 467.00 727.00 L 467.00 730.54 L 467.00 734.08 L 476.25 733.79 L 485.50 733.50 L 485.81 730.25 ZM 691.50 449.00 L 691.50 266.50 L 507.00 266.50 L 322.50 266.50 L 322.20 449.25 L 321.91 632.01 L 506.70 631.75 L 691.50 631.50 L 691.50 449.00 ZM 514.00 741.88 C507.69,739.36 503.99,733.41 504.02,725.80 C504.04,719.10 507.19,713.17 512.02,710.75 C516.82,708.34 525.58,708.44 529.71,710.96 C536.73,715.25 539.41,728.08 534.74,735.10 C530.59,741.34 520.74,744.56 514.00,741.88 ZM 569.27 730.75 C573.00,721.19 577.47,711.00 577.92,711.02 C578.41,711.04 584.43,724.44 586.57,730.25 C587.15,731.84 586.35,732.00 578.00,732.00 C571.04,732.00 568.91,731.69 569.27,730.75 ZM 334.80 589.50 C334.69,573.28 334.58,558.31 334.55,556.25 C334.50,552.54 334.55,552.50 338.75,552.19 L 343.00 551.89 L 342.93 520.19 C342.85,485.39 343.79,472.33 347.64,455.00 C349.05,448.67 350.29,443.40 350.40,443.28 C350.51,443.16 350.59,452.61 350.57,464.28 C350.54,482.76 350.84,486.85 352.83,495.96 C356.39,512.20 362.34,527.09 371.23,542.00 C373.04,545.03 375.41,549.02 376.51,550.88 C384.25,563.98 399.87,580.57 415.42,592.21 C426.21,600.27 444.19,610.15 462.00,617.79 C463.83,618.58 452.11,618.88 418.25,618.93 L 372.00 619.00 L 372.00 585.56 L 372.00 552.12 L 369.75 552.14 C368.51,552.15 365.59,552.38 363.25,552.64 L 359.00 553.12 L 359.00 586.06 L 359.00 619.00 L 347.00 619.00 L 335.00 619.00 L 334.80 589.50 ZM 594.82 616.25 L 594.50 613.50 L 562.00 612.92 C531.55,612.38 514.00,610.93 514.00,608.97 C514.00,608.53 519.29,608.13 525.75,608.07 C532.21,608.02 541.55,607.27 546.50,606.43 C568.93,602.58 596.27,590.09 614.60,575.31 L 618.71 572.00 L 633.35 572.00 L 648.00 572.00 L 648.00 578.50 L 648.00 585.00 L 633.63 585.00 L 619.26 585.00 L 618.74 588.87 C618.46,590.99 618.46,593.98 618.76,595.50 L 619.29 598.28 L 628.71 597.61 C633.90,597.25 640.36,597.24 643.07,597.60 L 648.00 598.26 L 648.00 604.13 L 648.00 610.00 L 630.00 610.00 L 612.00 610.00 L 612.00 614.50 L 612.00 619.00 L 603.57 619.00 L 595.13 619.00 L 594.82 616.25 ZM 660.76 589.25 L 660.50 559.50 L 647.25 559.55 C638.21,559.59 634.00,559.25 634.00,558.50 C634.00,557.89 635.61,555.84 637.57,553.95 C641.63,550.03 653.72,534.37 659.41,525.67 C661.50,522.46 665.89,514.14 669.15,507.17 C672.42,500.20 675.94,492.70 676.98,490.50 C678.86,486.53 678.88,487.00 678.94,552.75 L 679.00 619.00 L 670.01 619.00 L 661.03 619.00 L 660.76 589.25 ZM 512.82 576.92 C496.71,575.21 477.78,569.12 466.00,561.85 C463.52,560.32 460.15,558.32 458.50,557.40 C453.76,554.75 446.06,547.88 434.81,536.24 C430.33,531.60 421.77,509.63 419.61,497.25 C418.69,491.94 420.50,493.55 422.41,499.75 C424.55,506.69 431.81,520.48 436.98,527.44 C446.37,540.07 463.08,553.92 477.21,560.77 C507.88,575.66 540.84,576.73 574.11,563.90 C582.09,560.82 597.12,553.00 600.08,550.39 C600.95,549.63 602.07,549.00 602.58,549.00 C606.18,549.02 585.36,562.21 574.01,567.10 C552.63,576.32 534.55,579.22 512.82,576.92 ZM 410.26 548.75 C405.44,542.66 399.07,532.25 394.96,523.75 C372.66,477.66 379.81,425.49 413.00,391.98 C421.54,383.35 436.66,373.00 440.71,373.00 C441.77,373.00 444.73,372.29 447.28,371.42 C455.22,368.71 456.18,370.26 448.78,373.83 C425.53,385.05 404.92,407.21 395.74,430.85 C390.54,444.25 388.89,452.48 388.31,468.00 C387.70,484.22 389.64,498.42 394.62,514.19 C398.02,525.00 409.24,547.09 412.41,549.23 C413.18,549.76 413.17,549.97 412.37,549.98 C411.75,549.99 410.80,549.44 410.26,548.75 ZM 554.00 540.13 C554.00,539.53 555.24,538.77 556.75,538.45 C565.87,536.48 579.61,527.55 591.12,516.08 C611.43,495.85 622.73,469.84 624.60,439.00 C625.93,417.14 619.46,388.42 608.85,369.00 C605.89,363.57 605.88,363.54 608.49,366.50 C612.06,370.56 622.30,391.86 624.82,400.50 C636.64,440.95 630.32,478.53 606.50,509.45 C597.07,521.68 590.10,527.52 577.33,533.89 C566.85,539.13 554.00,542.56 554.00,540.13 ZM 665.68 442.00 C666.33,430.84 664.74,414.14 661.82,401.50 C650.44,352.28 610.08,305.88 559.56,283.95 L 551.62 280.50 L 555.56 280.28 C557.73,280.15 578.06,279.93 600.75,279.78 L 642.00 279.50 L 642.00 314.75 L 642.00 350.00 L 648.50 350.00 L 655.00 350.00 L 655.00 314.50 L 655.00 279.00 L 667.00 279.00 L 679.00 279.00 L 679.00 315.50 L 679.00 352.00 L 675.65 352.00 L 672.30 352.00 L 671.73 386.25 C671.17,420.52 669.70,437.46 666.42,447.49 C665.21,451.20 665.16,450.79 665.68,442.00 ZM 592.69 438.00 C592.37,436.08 591.84,431.81 591.52,428.52 C590.76,420.82 585.02,403.68 580.34,395.16 C575.85,386.97 569.90,378.67 565.11,373.92 C563.12,371.94 559.93,368.64 558.02,366.57 C545.16,352.69 520.90,340.93 497.85,337.39 C480.35,334.70 456.55,337.19 439.00,343.54 C429.53,346.97 413.77,354.98 405.00,360.83 C401.58,363.11 401.59,363.08 405.50,359.53 C410.72,354.78 419.25,349.03 427.16,344.92 C430.65,343.10 434.27,340.98 435.21,340.19 C437.14,338.58 450.52,334.71 462.50,332.30 C473.62,330.06 500.88,330.08 510.75,332.32 C526.67,335.95 543.64,344.03 556.59,354.15 C564.46,360.31 575.22,371.74 579.62,378.62 C583.60,384.85 590.33,399.00 589.63,399.70 C589.38,399.96 590.03,402.69 591.09,405.77 C593.52,412.82 595.50,433.36 594.21,438.08 L 593.28 441.50 L 592.69 438.00 ZM 335.00 361.76 L 335.00 314.03 L 361.75 313.77 L 388.50 313.50 L 388.80 307.77 L 389.10 302.04 L 368.80 301.77 L 348.50 301.50 L 348.36 294.25 C348.23,287.10 348.62,286.02 350.62,288.02 C351.27,288.67 359.63,288.94 373.57,288.77 L 395.50 288.50 L 395.80 283.75 L 396.11 279.00 L 404.47 279.00 C415.09,279.00 416.00,279.36 416.00,283.61 L 416.00 287.00 L 441.25 287.00 C473.44,287.00 500.10,289.40 498.41,292.15 C498.12,292.62 493.30,293.00 487.69,293.01 C482.09,293.01 473.00,293.68 467.50,294.50 C447.34,297.51 420.87,308.38 405.50,319.97 L 397.50 326.00 L 373.87 326.00 L 350.23 326.00 L 349.71 328.71 C349.43,330.21 349.43,332.90 349.72,334.69 L 350.25 337.95 L 366.12 338.23 L 381.98 338.50 L 379.20 341.50 C375.08,345.95 363.72,359.98 360.99,364.00 C359.68,365.92 357.08,369.30 355.21,371.50 C353.33,373.70 348.02,383.15 343.40,392.49 L 335.00 409.48 L 335.00 361.76 Z" fill="rgb(252,253,252)"/>
</g>
</svg>